<?xml version="1.0" standalone="no"?>
<!DOCTYPE svg PUBLIC "-//W3C//DTD SVG 1.1//EN" "http://www.w3.org/Graphics/SVG/1.1/DTD/svg11.dtd" >
<!--
2013-9-30: Created.
-->
<svg>
<metadata>
Created by iconfont
</metadata>
<defs>

<font id="iconfont" horiz-adv-x="1024" >
  <font-face
    font-family="iconfont"
    font-weight="500"
    font-stretch="normal"
    units-per-em="1024"
    ascent="896"
    descent="-128"
  />
    <missing-glyph />
    
    <glyph glyph-name="biaoqing" unicode="&#58908;" d="M512 815.78478222c-237.34565244 0-430.43478222-193.08913067-430.43478222-430.43478222 0-237.34565244 193.08913067-430.43478222 430.43478222-430.43478222s430.43478222 193.08913067 430.43478222 430.43478222C942.43478222 622.69565244 749.34565244 815.78478222 512 815.78478222zM512-5.954347559999974c-215.76521778 0-391.30434756 175.53913067-391.30434756 391.30434756 0 215.76521778 175.53913067 391.30434756 391.30434756 391.30434756s391.30434756-175.53913067 391.30434756-391.30434756C903.30434756 169.58478221999997 727.76521778-5.954347559999974 512-5.954347559999974zM682.62826045 570.24130401c-59.75217422 0-108.37173955-52.29782578-108.37173955-116.58913067 0-10.8 8.76521778-19.56521777 19.56521777-19.56521777s19.56521777 8.76521778 19.56521777 19.56521777c0 42.71086934 31.05 77.45869599 69.24130401 77.45869599 38.21086934 0 69.3-34.74782578 69.3-77.45869599 0-10.8 8.76521778-19.56521777 19.56521778-19.56521777s19.56521777 8.76521778 19.56521776 19.56521777C791.05869599 517.94347823 742.4 570.24130401 682.62826045 570.24130401zM344.65869599 531.11086934c38.17173955 0 69.22173955-34.74782578 69.22173956-77.458696 0-10.8 8.76521778-19.56521777 19.56521777-19.56521777s19.56521777 8.76521778 19.56521777 19.56521777c0 64.29130401-48.6 116.58913066-108.35217422 116.58913067-59.79130401 0-108.43043467-52.29782578-108.43043466-116.58913067 0-10.8 8.76521778-19.56521777 19.56521777-19.56521777s19.56521777 8.76521778 19.56521778 19.56521777C275.35869599 496.36304355 306.44782578 531.11086934 344.65869599 531.11086934zM721.44565244 292.18043466999995c-9.97826045 4.10869599-21.42391289-0.70434756-25.51304356-10.72173955-33.80869599-82.81956533-106.00434756-136.33043467-183.93260888-136.33043467s-150.12391289 53.51086933-183.93260888 136.33043466c-4.06956533 9.99782578-15.51521777 14.85-25.51304356 10.72173956-9.99782578-4.06956533-14.81086934-15.49565244-10.72173956-25.51304355C331.66739112 169.07608711 418.08695645 106.01739111999996 512 106.01739111999996s180.33260888 63.05869599 220.16739112 160.66956532C736.25652178 276.68478222 731.44347822 288.11086933 721.44565244 292.18043466999995z"  horiz-adv-x="1024" />

    
    <glyph glyph-name="qq" unicode="&#59040;" d="M512 834C263.375 834 62 632.625 62 384c0-248.625 201.375-450 450-450s450 201.375 450 450C962 632.625 760.625 834 512 834zM749.375 244.5c-10.125-5.625-27 6.75-42.75 30.375-5.625-24.75-21.375-47.25-42.75-65.25 22.5-7.875 37.125-22.5 37.125-37.125 0-25.875-40.5-46.125-90-46.125-45 0-82.125 16.875-88.875 38.25-2.25 0-9 0-11.25 0-6.75-21.375-43.875-38.25-88.875-38.25-49.5 0-90 20.25-90 46.125 0 15.75 14.625 29.25 37.125 37.125-21.375 18-37.125 40.5-42.75 65.25-15.75-22.5-32.625-34.875-42.75-30.375-15.75 7.875-12.375 50.625 6.75 94.5 14.625 34.875 34.875 60.75 50.625 66.375 0 2.25 0 4.5 0 6.75 0 13.5 3.375 25.875 10.125 36 0 1.125 0 1.125 0 2.25 0 6.75 1.125 12.375 4.5 16.875C361.25 559.5 420.875 631.5 517.625 631.5c96.75 0 156.375-72 160.875-163.125 2.25-4.5 4.5-11.25 4.5-16.875 0-1.125 0-1.125 0-2.25 6.75-10.125 10.125-22.5 10.125-36 0-2.25 0-4.5 0-6.75 15.75-5.625 36-31.5 50.625-66.375C761.75 295.125 765.125 252.375 749.375 244.5z"  horiz-adv-x="1024" />

    
    <glyph glyph-name="gengduo" unicode="&#59194;" d="M223.962372 288.102133c-52.980346 0-95.983874 43.003528-95.983874 95.983874s43.003528 95.983874 95.983874 95.983874 95.983874-43.003528 95.983874-95.983874S276.942718 288.102133 223.962372 288.102133zM511.913993 288.102133c-52.980346 0-95.983874 43.003528-95.983874 95.983874s43.003528 95.983874 95.983874 95.983874 95.983874-43.003528 95.983874-95.983874S564.894339 288.102133 511.913993 288.102133zM800.037628 288.102133c-52.980346 0-95.983874 43.003528-95.983874 95.983874s43.003528 95.983874 95.983874 95.983874 95.983874-43.003528 95.983874-95.983874S852.84596 288.102133 800.037628 288.102133z"  horiz-adv-x="1024" />

    
    <glyph glyph-name="kefufill" unicode="&#59200;" d="M608.929951 224.284898c-34.230808 0-60.892995 2.580212-68.461616 3.440282-17.545439 2.064169-30.274483 17.717453-28.210314 35.262893 1.892155 17.545439 17.545439 30.102469 35.262893 28.210314 79.642533-8.77272 201.772552-1.204099 223.102301 43.175542 7.568621 15.825298 26.662187 22.705863 42.659499 14.965228 15.997312-7.568621 22.705863-26.834201 14.965228-42.659499C794.361162 236.669914 683.412061 224.284898 608.929951 224.284898zM896.021502 256.107509c-17.717453 0-31.994625 14.277171-31.994625 31.994625l0 110.261045-42.831514 15.309256c-12.729044 4.472367-21.32975 16.685369-21.32975 30.102469 0 158.769024-129.182597 287.951621-287.951621 287.951621-158.769024 0-287.951621-129.182597-287.951621-287.951621 0-10.320847-4.988409-19.953637-13.417101-25.974131l-18.577524-13.245087 0-116.281539c0-17.717453-14.277171-31.994625-31.994625-31.994625s-31.994625 14.277171-31.994625 31.994625l0 132.794893c0 10.320847 4.988409 19.953637 13.417101 25.974131l18.921552 13.589115c8.77272 186.291282 163.069377 335.255501 351.596842 335.255501C698.377289 795.715774 851.469847 650.019822 863.338821 466.480766l43.51957-15.48127c12.729044-4.472367 21.32975-16.685369 21.32975-30.102469l0-132.794893C928.016126 270.38468 913.738955 256.107509 896.021502 256.107509zM639.892491 112.303712 639.892491 121.936503c28.0383 21.845792 50.400134 43.003528 63.645221 72.761969-29.070385-4.644381-61.581052-2.92424-87.727196-2.92424-31.994625 0-59.344868-0.860071-76.030237 1.032085-35.090879 3.956325-60.376953 38.703175-56.592642 73.794053 3.956325 35.090879 35.778935 60.720981 70.697799 56.592642 71.213842-7.568621 149.82429 0.688056 181.302873 13.933143 1.376113 29.242399 1.032085 60.032925 1.032085 83.426844 0 136.923232-83.254829 218.113892-216.737779 221.038132-0.688056 0-18.749538 0-19.437594 0-133.48295-2.752226-213.469511-84.974971-213.469511-222.070217 0-84.630942 1.376113-222.758273 97.359987-297.756425l0-9.63279c-127.978498-19.953637-226.026541-72.589955-226.026541-142.083655 0-17.717453 14.793214-34.230808 32.510667-34.230808l628.023518 0c17.717453 0 39.907274 16.513355 39.907274 34.230808C858.522426 39.713758 768.043004 92.178061 639.892491 112.303712z"  horiz-adv-x="1024" />

    
    <glyph glyph-name="xiangzuo1" unicode="&#59257;" d="M694.00823581-71.11062187000005c-13.98030905 0-27.96257507 5.31576605-38.62933732 15.98252829L254.91732935 345.33347669c-21.33548146 21.29829433-21.33548146 55.88796302 0 77.22344448L655.37889963 823.0556763c21.33548146 21.33548146 55.88796302 21.33548146 77.22344448 0 21.33548146-21.29829433 21.33548146-55.88796302 0-77.22344448l-361.83223296-361.86746197L732.60234297 22.132538029999978c21.33548146-21.33548146 21.33548146-55.88796302 0-77.22344448C721.97081088-65.79485581999995 707.98854485-71.11062187000005 694.00823581-71.11062187000005z"  horiz-adv-x="1024" />

    
    <glyph glyph-name="leimu" unicode="&#59278;" d="M350.392743 599.447673l574.527129 0c19.781623 0 35.950949 16.169326 35.950949 35.950949 0 19.781623-15.997312 35.950949-35.950949 35.950949l-574.527129 0c-19.781623 0-35.950949-16.169326-35.950949-35.950949C314.441794 615.617 330.61112 599.447673 350.392743 599.447673zM924.919872 419.864942l-574.527129 0c-19.781623 0-35.950949-16.169326-35.950949-35.950949 0-19.781623 16.169326-35.950949 35.950949-35.950949l574.527129 0c19.781623 0 35.950949 16.169326 35.950949 35.950949C960.870821 403.695616 944.701495 419.864942 924.919872 419.864942zM924.919872 168.552327l-574.527129 0c-19.781623 0-35.950949-15.997312-35.950949-35.950949s16.169326-35.950949 35.950949-35.950949l574.527129 0c19.781623 0 35.950949 15.997312 35.950949 35.950949S944.701495 168.552327 924.919872 168.552327zM63.129179 635.398623c0-39.73526 32.166639-71.901898 71.901898-71.901898s71.901898 32.166639 71.901898 71.901898-32.166639 71.901898-71.901898 71.901898S63.129179 674.961868 63.129179 635.398623zM63.129179 384.086007c0-39.73526 32.166639-71.901898 71.901898-71.901898s71.901898 32.166639 71.901898 71.901898c0 39.73526-32.166639 71.901898-71.901898 71.901898S63.129179 423.649252 63.129179 384.086007zM63.129179 132.601377c0-39.73526 32.166639-71.901898 71.901898-71.901898s71.901898 32.166639 71.901898 71.901898c0 39.73526-32.166639 71.901898-71.901898 71.901898S63.129179 172.336637 63.129179 132.601377z"  horiz-adv-x="1024" />

    
    <glyph glyph-name="others" unicode="&#59324;" d="M188.20055 513.699682c-70.198151 0-127.308206-57.110054-127.308206-127.311818 0-70.198151 57.110054-127.311818 127.308206-127.311818s127.308206 57.113667 127.308206 127.311818C315.508756 456.589628 258.398702 513.699682 188.20055 513.699682zM188.20055 454.198151c37.389402 0 67.806675-30.417272 67.806675-67.806675 0-37.38579-30.417272-67.803062-67.806675-67.803062s-67.806675 30.417272-67.806675 67.803062C120.393876 423.777267 150.811148 454.198151 188.20055 454.198151zM840.01524 513.699682c-70.201764 0-127.311818-57.110054-127.311818-127.311818 0-70.198151 57.113667-127.311818 127.311818-127.311818s127.308206 57.113667 127.308206 127.311818C967.323446 456.589628 910.213392 513.699682 840.01524 513.699682zM840.01524 454.198151c37.389402 0 67.806675-30.417272 67.806675-67.806675 0-37.38579-30.417272-67.803062-67.806675-67.803062s-67.806675 30.417272-67.806675 67.803062S802.625838 454.198151 840.01524 454.198151zM515.46439 513.699682c-70.198151 0-127.308206-57.110054-127.308206-127.311818 0-70.198151 57.110054-127.311818 127.308206-127.311818s127.308206 57.113667 127.308206 127.311818C642.772596 456.589628 585.658929 513.699682 515.46439 513.699682zM515.46439 454.198151c37.389402 0 67.806675-30.417272 67.806675-67.806675 0-37.38579-30.417272-67.803062-67.806675-67.803062s-67.806675 30.417272-67.806675 67.803062C447.657715 423.777267 478.074988 454.198151 515.46439 454.198151z"  horiz-adv-x="1024" />

    
    <glyph glyph-name="weibo" unicode="&#58925;" d="M629.646875 389.146875c-19.0125 3.7125-9.7875 13.921875-9.7875 13.921875s18.61875 30.684375-3.684375 52.9875c-27.61875 27.61875-94.753125-3.515625-94.753125-3.515625-25.65-7.959375-18.84375 3.628125-15.215625 23.34375 0 23.23125-7.959375 62.578125-76.246875 39.346875-68.23125-23.34375-126.815625-105.1875-126.815625-105.1875-40.753125-54.365625-35.353125-96.384375-35.353125-96.384375 10.18125-92.75625 108.759375-118.2375 185.4-124.25625 80.6625-6.328125 189.50625 27.815625 222.525 97.903125C708.70625 357.5625 648.715625 385.35 629.646875 389.146875M459.153125 215.55937500000005c-80.071875-3.740625-144.7875 36.39375-144.7875 89.859375 0 53.49375 64.715625 96.384375 144.7875 100.06875 80.128125 3.7125 144.984375-29.30625 144.984375-82.6875C604.109375 269.36249999999995 539.28125 219.21562500000005 459.153125 215.55937500000005M443.178125 370.24687500000005c-80.55-9.421875-71.240625-84.853125-71.240625-84.853125s-0.815625-23.878125 21.6-36.05625c47.1375-25.509375 95.653125-10.06875 120.178125 21.6C538.2125 302.60625000000005 523.8125 379.61249999999995 443.178125 370.24687500000005M422.871875 264.384375c-15.046875-1.74375-27.16875 6.91875-27.16875 19.490625 0 12.515625 10.771875 25.65 25.81875 27.196875 17.26875 1.63125 28.51875-8.296875 28.51875-20.86875C450.0125 277.65937499999995 437.834375 266.071875 422.871875 264.384375M470.346875 304.828125c-5.090625-3.796875-11.3625-3.290625-14.034375 1.29375-2.8125 4.44375-1.74375 11.5875 3.403125 15.328125 5.9625 4.44375 12.178125 3.178125 14.85-1.29375C477.2375 315.6 475.296875 308.765625 470.346875 304.828125M668.853125 421.828125c6.496875 0 12.009375 4.809375 12.9375 11.053125 0.1125 0.478125 0.16875 0.871875 0.16875 1.40625 9.84375 88.425-72.478125 73.209375-72.478125 73.209375-7.3125 0-13.1625-5.90625-13.1625-13.275 0-7.25625 5.85-13.1625 13.1625-13.1625 59.11875 13.05 46.06875-46.06875 46.06875-46.06875C655.578125 427.678125 661.540625 421.828125 668.853125 421.828125M659.2625 576.178125c-28.434375 6.665625-57.7125 0.9-65.925-0.646875-0.61875-0.05625-1.2375-0.646875-1.8-0.759375-0.28125-0.05625-0.478125-0.365625-0.478125-0.365625-8.071875-2.278125-14.00625-9.759375-14.00625-18.61875 0-10.546875 8.55-19.209375 19.209375-19.209375 0 0 10.35 1.378125 17.38125 4.134375 6.946875 2.8125 65.896875 2.109375 95.175-47.053125 15.975-35.8875 7.03125-59.878125 5.90625-63.759375 0 0-3.796875-9.309375-3.796875-18.50625 0-10.603125 8.55-17.26875 19.125-17.26875 8.859375 0 16.284375 1.209375 18.45 16.171875l0.1125 0C780.059375 515.090625 710.16875 564.309375 659.2625 576.178125M512 834C263.459375 834 62 632.5125 62 384c0-248.540625 201.459375-450 450-450 248.5125 0 450 201.459375 450 450C962 632.5125 760.5125 834 512 834M512-39.956249999999955C277.859375-39.956249999999955 88.04375 149.859375 88.04375 384 88.04375 618.140625 277.859375 807.928125 512 807.928125c234.140625 0 423.95625-189.815625 423.95625-423.928125C935.95625 149.859375 746.140625-39.956249999999955 512-39.956249999999955"  horiz-adv-x="1024" />

    
    <glyph glyph-name="fanhui" unicode="&#58922;" d="M686.15872227 826.10707295L295.79532646 429.09446133a71.29568497 71.29568497 0 0 1 0.75720586-100.61375713l392.16176016-387.64218691a23.66269013 23.66269013 0 0 1 33.2697419 33.64834482L329.82227422 362.12904903000003a23.97030469 23.97030469 0 0 0-0.28395175 33.79032157L719.90171826 792.93198223A23.66269013 23.66269013 0 1 1 686.18238506 826.08341016z"  horiz-adv-x="1024" />

    
    <glyph glyph-name="jiantoushang" unicode="&#58924;" d="M936.77037013 80.59259307000002c-18.2044448 0-36.40888853 6.06814827-48.54518506 18.20444373L554.4770368 493.22666667c-12.13629653 6.06814827-18.2044448 12.13629653-36.40888853 12.13629653-6.06814827 0-24.27259307-6.06814827-30.34074134-12.13629653l-351.952592-388.3614816c-24.27259307-24.27259307-60.6814816-24.27259307-84.95407466-6.06814827-24.27259307 24.27259307-24.27259307 60.6814816-6.0681472 84.95407467l351.952592 388.3614816c30.34074027 36.40888853 78.8859264 54.61333333 127.43111146 54.61333333s91.02222187-24.27259307 127.4311104-60.6814816l333.74814827-388.3614816c24.27259307-24.27259307 18.2044448-60.6814816-6.06814827-84.95407467-12.13629653-6.06814827-30.34074027-12.13629653-42.4770368-12.13629546z"  horiz-adv-x="1024" />

    
    <glyph glyph-name="jiantouyou" unicode="&#58926;" d="M312.888889-56.88888933999999c-17.066667 0-28.444444 5.688889-39.822222 17.066667-22.755556 22.755556-17.066667 56.888889 5.688889 79.644445l364.088888 329.955555c11.377778 11.377778 17.066667 22.755556 17.066667 34.133333 0 11.377778-5.688889 22.755556-17.066667 34.133334L273.066667 750.93333366c-22.755556 22.755556-28.444444 56.888889-5.688889 79.644444 22.755556 22.755556 56.888889 28.444444 79.644444 5.688889l364.088889-312.888889c34.133333-28.444444 56.888889-73.955556 56.888889-119.466667s-17.066667-85.333333-51.2-119.466666l-364.088889-329.955556c-11.377778-5.688889-28.444444-11.377778-39.822222-11.377778z"  horiz-adv-x="1024" />

    
    <glyph glyph-name="jiantouxia" unicode="&#58927;" d="M518.06814827 80.59259307000002c-48.54518507 0-91.02222187 18.2044448-127.43111147 54.61333333L44.75259307 523.5674069300001c-24.27259307 24.27259307-18.2044448 60.6814816 6.0681472 84.95407467 24.27259307 24.27259307 60.6814816 18.2044448 84.95407466-6.06814827l351.952592-388.3614816c6.06814827-6.06814827 18.2044448-12.13629653 30.34074134-12.13629653s24.27259307 6.06814827 36.40888853 18.2044448l333.74814827 388.3614816c24.27259307 24.27259307 60.6814816 30.34074027 84.95407466 6.06814827 24.27259307-24.27259307 30.34074027-60.6814816 6.0681472-84.95407467L645.49925973 141.27407359999995c-30.34074027-42.4770368-72.81777813-60.6814816-127.43111146-60.68148053 6.06814827 0 0 0 0 0z"  horiz-adv-x="1024" />

    
    <glyph glyph-name="saoyisao" unicode="&#58928;" d="M675.84 793.6a22.7555552 22.7555552 0 1 0 0 45.51111147h131.8912A159.44817813 159.44817813 0 0 0 967.11111147 679.66293333v-142.40426666a22.7555552 22.7555552 0 1 0-45.51111147 0v142.40426666A113.93706667 113.93706667 0 0 1 807.7312 793.6h-131.9139552zM921.6 209.10080000000005a22.7555552 22.7555552 0 1 0 45.51111147 0v-120.8092448A159.3571552 159.3571552 0 0 0 807.82222187-71.11111146999997H216.17777813c-87.8819552 0-159.28888853 71.4524448-159.2888896 159.15235627v130.93546667a22.7555552 22.7555552 0 0 0 45.51111147 0v-130.93546667A113.8915552 113.8915552 0 0 1 216.17777813-25.600000000000023h591.64444374c62.80533333 0 113.77777813 50.9952 113.77777813 113.8915552v120.832zM102.4 542.8792885299999a22.7555552 22.7555552 0 1 0-45.51111147 0v136.7608896C56.88888853 767.68142187 128.1820448 839.11111147 216.13226667 839.11111147h137.30702186a22.7555552 22.7555552 0 0 0 0-45.51111147h-137.30702186A113.8460448 113.8460448 0 0 1 102.4 679.61742187v-136.73813334zM79.6444448 361.2444448a22.7555552 22.7555552 0 0 0 0 45.5111104h864.7111104a22.7555552 22.7555552 0 0 0 0-45.5111104H79.6444448z"  horiz-adv-x="1024" />

    
    <glyph glyph-name="fenlei" unicode="&#58930;" d="M579.92533333 145.06666667000002a171.008 171.008 0 1 1 171.008 171.008H605.75288853c-14.3587552 0-25.8048-11.4688-25.8048-25.8048V145.06666667000002zM750.93333333 361.2444448A216.17777813 216.17777813 0 1 0 534.7555552 145.06666667000002V290.24711147000005A70.8608 70.8608 0 0 0 605.73013333 361.2444448H750.93333333zM489.2444448 145.06666667000002a216.17777813 216.17777813 0 1 0-216.17777813 216.17777813h145.2032A70.8608 70.8608 0 0 0 489.2444448 290.26986667000006V145.06666667000002z m-216.17777813 171.008a171.008 171.008 0 1 1 171.008-171.008V290.24711147000005c0 14.336-11.4460448 25.8048-25.8048 25.8048H273.06666667zM534.7555552 622.95608853A216.17777813 216.17777813 0 1 0 750.93333333 406.7555552H605.75288853A70.8608 70.8608 0 0 0 534.7555552 477.73013333V622.93333333z m216.17777813-171.0307552a171.008 171.008 0 1 1-171.008 171.008v-145.2032c0-14.336 11.4460448-25.8048 25.8048-25.8048H750.93333333zM444.07466667 622.93333333a171.008 171.008 0 1 1-171.008-171.008h145.2032c14.3587552 0 25.8048 11.4688 25.8048 25.8048V622.93333333zM273.06666667 406.7555552A216.17777813 216.17777813 0 1 0 489.2444448 622.93333333v-145.2032A70.8608 70.8608 0 0 0 418.26986667 406.7555552H273.06666667z"  horiz-adv-x="1024" />

    
    <glyph glyph-name="mima1" unicode="&#58892;" d="M762.624 499.45h-27.852V607.364c0 129.735-92.452 231.332-223.8 231.332-131.877 0-221.746-103.762-221.746-231.332V499.45h-27.85c-61.422 0-111.381-50.71-111.381-113.081v-339.201c0-62.372 49.959-113.082 111.38-113.082h501.249c61.42 0 111.381 50.71 111.381 113.082V386.369c0 62.371-49.96 113.081-111.381 113.081zM344.906 607.364c0 96.34 64.889 174.79 166.065 174.79 100.118 0 168.1-76.771 168.1-174.79V499.45H344.906V607.364z m473.397-560.196c0-31.186-24.98-56.541-55.68-56.541H261.376c-30.7 0-55.701 25.355-55.701 56.54V386.37c0 31.186 25.001 56.54 55.701 56.54h501.249c30.699 0 55.679-25.355 55.679-56.54v-339.201zM511.987 329.87c-30.743 0-55.679-25.354-55.679-56.584 0-20.93 11.208-39.187 27.85-48.964v-92.389c0-15.593 12.457-28.226 27.83-28.226 15.394 0 27.85 12.633 27.85 28.226v92.393c16.647 9.777 27.853 28.034 27.853 48.96 0 31.23-24.937 56.584-55.704 56.584z"  horiz-adv-x="1024" />

    
    <glyph glyph-name="shouhuodizhiyebianji" unicode="&#58949;" d="M896 377.77066666999997a25.6 25.6 0 0 0 51.2 0V106.66666667000004a179.2 179.2 0 0 0-179.2-179.2H256a179.2 179.2 0 0 0-179.2 179.2V618.66666667a179.2 179.2 0 0 0 179.2 179.2h313.1392a25.6 25.6 0 0 0 0-51.2H256a128 128 0 0 1-128-128v-512a128 128 0 0 1 128-128h512a128 128 0 0 1 128 128V377.77066666999997z m-5.9392 373.5296a25.6 25.6 0 1 0 37.4784-34.8672L547.2 307.57546666999997a25.6 25.6 0 0 0-37.4784 34.8672L890.0608 751.30026667z"  horiz-adv-x="1024" />

    
    <glyph glyph-name="weixin---" unicode="&#58901;" d="M511.56054687-54.75C452.234375-54.75 394.75390625-43.1484375 340.61328125-20.296875c-52.29492188 22.1484375-99.22851563 53.7890625-139.5703125 94.04296875-40.34179688 40.34179688-71.98242188 87.27539063-94.04296875 139.5703125-22.8515625 54.140625-34.453125 111.62109375-34.453125 170.859375S84.1484375 500.89453125 107.08789062 555.03515625c22.1484375 52.29492188 53.7890625 99.22851563 94.04296876 139.5703125 40.34179688 40.34179688 87.27539063 71.98242188 139.57031249 94.04296875 54.140625 22.93945313 111.62109375 34.54101563 170.85937501 34.54101563s116.71875-11.6015625 170.85937499-34.54101563c52.29492188-22.1484375 99.22851563-53.7890625 139.57031251-94.04296875 40.34179688-40.34179688 71.98242188-87.27539063 94.04296874-139.5703125 22.93945313-54.140625 34.54101563-111.62109375 34.54101563-170.859375s-11.6015625-116.71875-34.54101563-170.859375c-22.1484375-52.29492188-53.7890625-99.22851563-94.04296875-139.5703125s-87.27539063-71.98242188-139.57031249-94.04296875c-54.140625-22.8515625-111.62109375-34.453125-170.85937501-34.453125z m1e-8 834.08203125c-53.34960938 0-105.1171875-10.45898438-153.80859376-31.02539063-47.02148438-19.86328125-89.296875-48.42773438-125.59570312-84.63867187-36.29882813-36.29882813-64.77539063-78.57421875-84.63867188-125.59570313C126.86328125 489.29296875 116.4921875 437.52539063 116.4921875 384.17578125c0-53.34960938 10.45898438-105.1171875 31.02539063-153.80859375 19.86328125-47.02148438 48.42773438-89.296875 84.63867187-125.59570313C268.45507812 68.47265625 310.73046875 39.99609375 357.75195312 20.1328125c48.69140625-20.56640625 100.45898438-31.02539063 153.80859376-31.02539063s105.1171875 10.45898438 153.80859374 31.02539063c47.02148438 19.86328125 89.296875 48.42773438 125.59570313 84.63867188s64.77539063 78.57421875 84.63867188 125.59570312c20.56640625 48.69140625 31.02539063 100.45898438 31.02539062 153.80859375s-10.45898438 105.1171875-31.02539063 153.80859375c-19.86328125 47.02148438-48.42773438 89.296875-84.63867187 125.59570313-36.29882813 36.29882813-78.57421875 64.77539063-125.59570313 84.63867187-48.77929688 20.65429688-100.45898438 31.11328125-153.80859374 31.11328125zM546.27734375 339.08789062000005c-15.1171875 0-27.421875 12.3046875-27.421875 27.50976563 0 15.1171875 12.3046875 27.421875 27.421875 27.421875s27.421875-12.21679688 27.50976563-27.33398438c0-15.20507813-12.3046875-27.50976563-27.50976563-27.59765625z m217.17773438-19.59960937c0 70.6640625-63.72070313 128.49609375-144.40429688 133.41796875-3.77929688 0.17578125-7.55859375 0.3515625-11.33789063 0.3515625-86.04492188 0-155.7421875-59.85351563-155.74218749-133.76953125 0-10.8984375 1.58203125-21.70898438 4.65820312-32.16796875 16.69921875-58.27148438 78.046875-101.6015625 151.171875-101.6015625 23.73046875-0.08789063 47.28515625 4.65820313 69.16992188 13.88671875l34.98046874-23.5546875s9.31640625-6.328125 8.4375 5.9765625l-9.93164062 37.00195313c32.51953125 23.11523438 52.20703125 60.46875 52.99804688 100.45898437zM607.71289063 464.41992188c3.33984375 0 6.59179688-0.17578125 9.93164062-0.35156251-12.83203125 74.79492188-87.80273438 132.1875-178.41796875 132.18750001-99.58007813 0-180.3515625-69.43359375-180.3515625-154.86328126 0.96679688-47.72460938 25.04882813-91.93359375 64.51171875-118.65234374l-13.359375-49.5703125s-4.5703125-16.43554688 12.65625-9.140625l49.65820313 33.48632812c21.53320313-7.3828125 44.03320313-11.07421875 66.79687499-11.07421875 2.02148438 0 3.95507813 0.17578125 5.9765625 0.17578125-2.90039063 10.72265625-4.39453125 21.70898438-4.39453125 32.87109375 0 79.89257813 74.97070313 144.93164063 166.99218751 144.93164063z m71.19140624-125.24414063c-15.1171875 0-27.421875 12.3046875-27.421875 27.50976563 0 15.1171875 12.3046875 27.421875 27.50976563 27.42187499 15.1171875 0 27.421875-12.3046875 27.421875-27.42187499 0-7.29492188-2.90039063-14.23828125-8.0859375-19.42382813-5.09765625-5.18554688-12.12890625-8.0859375-19.42382813-8.0859375zM354.67578125 462.57421875c-15.1171875 0-27.421875 12.3046875-27.421875 27.50976563 0 15.1171875 12.3046875 27.421875 27.421875 27.42187499s27.421875-12.21679688 27.50976563-27.33398437c0-7.29492188-2.90039063-14.32617188-7.99804688-19.51171875-5.18554688-5.18554688-12.21679688-8.0859375-19.51171875-8.0859375z m162.86132813 0c-15.1171875 0-27.421875 12.3046875-27.42187501 27.50976563 0 15.1171875 12.3046875 27.421875 27.421875 27.42187499s27.421875-12.21679688 27.50976563-27.33398437c0-15.20507813-12.3046875-27.50976563-27.50976563-27.59765625z m-1e-8 0"  horiz-adv-x="1024" />

    
    <glyph glyph-name="huanyihuan" unicode="&#59009;" d="M838.695385 516.59615401A354.619077 354.619077 0 0 1 512 733.21153801a354.461538 354.461538 0 1 1 0-708.923076 354.579692 354.579692 0 0 1 330.161231 225.20122999 39.384615 39.384615 0 1 0 73.334154-28.75076899A433.309538 433.309538 0 0 0 512-54.48076900000001C272.738462-54.48076900000001 78.769231 139.48846201000003 78.769231 378.75000001S272.738462 811.980769 512 811.980769c144.423385 0 275.140923-71.286154 354.461538-183.965538V713.519231a39.384615 39.384615 0 0 0 78.769231 0v-236.307693a39.266462 39.266462 0 0 0-39.384615-39.38461501h-196.923077a39.384615 39.384615 0 0 0 0 78.76923101h129.772308z"  horiz-adv-x="1024" />

    
    <glyph glyph-name="wodefensi" unicode="&#58946;" d="M803.589953 220.957767a478.648558 478.648558 0 0 1-32.756093 31.648745 23.218605 23.218605 0 0 1-32.768-2.143256 23.242419 23.242419 0 0 1 2.190884-32.803721c10.263814-9.013581 20.122791-18.491535 29.457861-28.481488a406.76614 406.76614 0 0 0 29.410232-34.982698c54.784-72.870698 83.72986-159.708279 83.729861-251.153861a23.242419 23.242419 0 0 1 46.47293 0c0 101.61414-32.208372 198.084465-93.112558 279.028093a458.597209 458.597209 0 0 1-32.625117 38.888186zM986.754977 204.145116a425.876837 425.876837 0 0 1-59.153861 63.702326 23.242419 23.242419 0 1 1-30.660465-34.946977 368.87814 368.87814 0 0 0 26.385861-25.457116c9.287442-9.942326 18.122419-20.444279 26.314418-31.279628 48.961488-65.131163 74.847256-142.836093 74.847256-224.613209a23.242419 23.242419 0 0 1 46.461023 0c0.095256 91.957581-29.041116 179.271442-84.182325 252.594604zM932.018605 565.783814c0 155.195535-126.297302 281.445209-281.480931 281.445209-6.286884 0-12.371349-0.547721-18.551069-0.928744C583.68 877.437023 526.288372 895.76186 464.65786 895.76186c-171.031814 0-310.15293-139.168744-310.15293-310.176744 0-104.781395 52.319256-197.381953 132.096-253.559069C115.747721 260.738977 0 91.183628 0-96.958512a23.242419 23.242419 0 0 1 46.461023 0c0 181.914791 120.165209 344.683163 293.114047 398.907535a308.093023 308.093023 0 0 1 125.08279-26.576372c38.340465 0 74.906791 7.298977 108.78214 20.075163 24.528372-7.060837 50.271256-11.156837 77.085767-11.156837 155.195535 0 281.492837 126.297302 281.492838 281.492837z m-467.348838-243.902512c-145.396093 0-263.703814 118.307721-263.703814 263.703814 0 145.384186 118.307721 263.691907 263.691907 263.691907 145.396093 0 263.703814-118.307721 263.703814-263.691907 0-145.443721-118.307721-263.703814-263.703814-263.703814z m185.867907 8.882605c-2.845767 0-5.489116 0.738233-8.334883 0.833488 80.074419 56.129488 132.619907 148.920558 132.619907 253.940093 0 81.598512-31.910698 155.707535-83.586977 211.146419 110.163349-19.432186 194.274233-115.247628 194.274232-230.900093 0.047628-129.595535-105.388651-235.019907-234.984186-235.019907zM371.735814 16.050605l92.922046-92.933954 92.933954 92.933954-92.933954 232.32893z"  horiz-adv-x="1071" />

    
    <glyph glyph-name="huizhang" unicode="&#58902;" d="M513.6 156.79999999999995c-86.8 0-168.4 33.8-229.8 95.2-61.4 61.4-95.2 143-95.2 229.8 0 77.4 27.6 152.3 77.9 211.1 9 10.5 24.8 11.7 35.2 2.8 10.5-9 11.7-24.8 2.8-35.2-42.5-49.7-65.9-113.1-65.9-178.6 0-151.6 123.4-275 275-275s275 123.4 275 275-123.4 275-275 275c-33 0-65.2-5.8-95.8-17.1-12.9-4.8-27.3 1.8-32.1 14.7-4.8 12.9 1.8 27.3 14.7 32.1 36.2 13.5 74.3 20.3 113.2 20.3 86.8 0 168.4-33.8 229.8-95.2 61.4-61.4 95.2-143 95.2-229.8 0-86.8-33.8-168.4-95.2-229.8-61.3-61.5-143-95.3-229.8-95.3zM513.6 333.70000000000005c-81.7 0-148.1 66.4-148.1 148.1 0 81.7 66.4 148.1 148.1 148.1 81.7 0 148.1-66.4 148.1-148.1 0-81.7-66.4-148.1-148.1-148.1z m0 246.2c-54.1 0-98.1-44-98.1-98.1 0-54.1 44-98.1 98.1-98.1 54.1 0 98.1 44 98.1 98.1 0 54.1-44 98.1-98.1 98.1zM269.4-46.700000000000045c-2.2 0-4.4 0.3-6.5 0.9-8.6 2.3-15.4 9.1-17.6 17.8l-27.1 103.7-103.7 27.1c-8.7 2.3-15.5 9-17.8 17.6-2.3 8.6 0.1 17.9 6.5 24.2l158 158c9.8 9.8 25.6 9.8 35.4 0 9.8-9.8 9.8-25.6 0-35.4L169.3 140.10000000000002l75.7-19.8c8.7-2.3 15.6-9.1 17.9-17.9l19.8-75.7 164 164c9.8 9.8 25.6 9.8 35.4 0 9.8-9.8 9.8-25.6 0-35.4l-195-194.7c-4.7-4.7-11.1-7.3-17.7-7.3zM757.6-46.700000000000045c-6.5 0-12.9 2.6-17.7 7.3L543 157.5c-9.8 9.8-9.8 25.6 0 35.4 9.8 9.8 25.6 9.8 35.4 0l166.1-166.1 19.8 75.7c2.3 8.7 9.1 15.6 17.9 17.9l75.7 19.8-122.2 122c-9.8 9.8-9.8 25.6 0 35.4 9.8 9.8 25.6 9.8 35.4 0L924 144.70000000000005c6.3-6.3 8.8-15.6 6.5-24.2-2.3-8.6-9.1-15.4-17.8-17.6L809 75.79999999999995 781.7-28c-2.3-8.7-9-15.5-17.6-17.8-2.2-0.6-4.4-0.9-6.5-0.9z"  horiz-adv-x="1024" />

    
    <glyph glyph-name="yuyin" unicode="&#58910;" d="M539.92106667 52.44586666999999v-56.71253334h27.92106666a27.73333333 27.73333333 0 1 0 0-55.46666666h-111.70133333a27.73333333 27.73333333 0 1 0 0 55.46666666h27.92106667v56.71253334A312.32 312.32 0 0 0 204.8 300.79999999999995h55.8592a259.77173333 259.77173333 0 0 1 502.69866667 0H819.2a312.32 312.32 0 0 0-279.27893333-248.35413333zM512 162.13333333000003a194.816 194.816 0 0 0-195.4816 194.13333334v277.33333333a195.49866667 195.49866667 0 0 0 390.98026667 0v-277.33333333A194.816 194.816 0 0 0 512 162.13333333000003z m139.63946667 471.46666667a139.63946667 139.63946667 0 0 1-279.27893334 0v-277.33333333a139.63946667 139.63946667 0 0 1 279.27893334 0v277.33333333z"  horiz-adv-x="1024" />

    
    <glyph glyph-name="baoxiang" unicode="&#59010;" d="M934.3-62.60000000000002H107.1L45.4 431.2H996zM782.5-3.8999999999999773H259l-39.1 270.4h601.7zM119.5 801.6H922l74-370.4H45.4zM218.5 801.6H823l55.8-370.4H162.7zM471.3 801.6h98.8v-404.3h-98.8zM471.3 341.70000000000005h98.8v-404.3h-98.8zM20.7 397.3h1000v-74.1H20.7zM631.8 461.2h-49.4c0 34-27.7 61.7-61.7 61.7S459 495.2 459 461.2h-49.4c0 61.3 49.8 111.1 111.1 111.1s111.1-49.9 111.1-111.1zM434.3 461.2c0 47.7 38.7 86.4 86.4 86.4s86.4-38.7 86.4-86.4M607.1 323.20000000000005c0-47.7-38.7-86.4-86.4-86.4s-86.4 38.7-86.4 86.4M520.7 473.5m-43.2 0a43.2 43.2 0 1 1 86.4 0 43.2 43.2 0 1 1-86.4 0ZM520.7 329.4m-30.9 0a30.9 30.9 0 1 1 61.8 0 30.9 30.9 0 1 1-61.8 0ZM512.4 301.9h16.7v-50h-16.7zM96.653284 276.00268400000004a12.5 12.5 0 1 1 24.884905 2.396144 12.5 12.5 0 1 1-24.884905-2.396144ZM103.857446 201.304037a12.5 12.5 0 1 1 24.884905 2.396144 12.5 12.5 0 1 1-24.884905-2.396144ZM111.0618 126.60539900000003a12.5 12.5 0 1 1 24.884905 2.396143 12.5 12.5 0 1 1-24.884905-2.396143ZM118.256473 52.00629600000002a12.5 12.5 0 1 1 24.884905 2.396143 12.5 12.5 0 1 1-24.884905-2.396143ZM125.361292-22.702023000000054a12.5 12.5 0 1 1 24.884905 2.396144 12.5 12.5 0 1 1-24.884905-2.396144ZM923.624304 264.250853a12.5 12.5 0 1 1 3.0476 24.813547 12.5 12.5 0 1 1-3.0476-24.813547ZM914.432211 189.749915a12.5 12.5 0 1 1 3.0476 24.813548 12.5 12.5 0 1 1-3.0476-24.813548ZM905.352555 115.33691999999996a12.5 12.5 0 1 1 3.0476 24.813547 12.5 12.5 0 1 1-3.0476-24.813547ZM896.171774 40.936229000000026a12.5 12.5 0 1 1 3.0476 24.813547 12.5 12.5 0 1 1-3.0476-24.813547ZM886.978803-33.563716a12.5 12.5 0 1 1 3.0476 24.813548 12.5 12.5 0 1 1-3.0476-24.813548ZM119.315936 507.860637a12.5 12.5 0 1 1 3.554926 24.74596 12.5 12.5 0 1 1-3.554926-24.74596ZM130.027222 582.127614a12.5 12.5 0 1 1 3.554926 24.745959 12.5 12.5 0 1 1-3.554926-24.745959ZM140.639524 656.408811a12.5 12.5 0 1 1 3.554926 24.745959 12.5 12.5 0 1 1-3.554926-24.745959ZM151.336591 730.576804a12.5 12.5 0 1 1 3.554926 24.745959 12.5 12.5 0 1 1-3.554926-24.745959ZM913.419363 518.507697a12.5 12.5 0 1 1 24.745959 3.554927 12.5 12.5 0 1 1-24.745959-3.554927ZM902.726239 592.7034719999999a12.5 12.5 0 1 1 24.745959 3.554926 12.5 12.5 0 1 1-24.745959-3.554926ZM892.117727 667.012583a12.5 12.5 0 1 1 24.745959 3.554926 12.5 12.5 0 1 1-24.745959-3.554926ZM881.424593 741.2085a12.5 12.5 0 1 1 24.74596 3.554926 12.5 12.5 0 1 1-24.74596-3.554926ZM20.7 471.4h1000v-74.1H20.7z"  horiz-adv-x="1024" />

    
    <glyph glyph-name="yanzhengma" unicode="&#58880;" d="M512.03296063-96c95.58418688 32.35030313 185.10921469 94.29874406 249.97462124 184.30718719 51.11556656 70.83117844 92.07943313 158.96639063 121.69405125 262.22477906 49.91252438 173.97420656 50.55524531 328.96341656 50.55524532 335.48950875 0.09888 14.80456219-10.42087406 27.08767969-24.45087375 28.54341563-2.20832438 0.19226719-226.128015 24.64314187-381.77642625 143.975055a26.07141094 26.07141094 0 0 1-31.92731625 0C341.28884 739.89470062 116.53965406 714.76265156 114.32034312 714.57038438c-14.03000062-1.3678425-24.54426094-13.73885344-24.54426187-28.54341563 0-6.52609313 0.5548275-161.50980938 50.56073906-335.48401594 29.62011094-103.05513469 70.4850975-191.31120094 121.69405125-262.23027281 64.86540656-89.91505594 154.51128844-151.96237687 250.00208906-184.31268m367.33442438 756.79603875l-0.09888-1.56010969c-2.66976563-56.60341688-12.36551719-169.88715844-47.42403937-292.14702375-61.54193344-214.38873938-168.93681-350.7719925-319.23470438-405.3263925l-0.5548275-0.19226719-0.565815 0.19226719c-149.82546656 54.45002625-257.13244875 190.34437219-318.85016906 403.97502938-36.71751187 127.11598219-45.57827531 247.61248406-47.78660063 293.59177406l-0.09888 1.55461594 1.38432281 0.19776094c65.13458062 10.03084594 231.11597156 43.63363219 364.89537938 138.71243062l0.82949531 0.68666813 0.92837531-0.68666813c133.96618219-95.07879937 299.94757312-128.68158469 365.08764657-138.81680438l1.48869656-0.18128062zM665.46206 523.9952915599999l-197.52966563-213.46036406-114.25057031 100.08872906a32.52059719 32.52059719 0 0 1-20.99006812 7.69068188 32.21846344 32.21846344 0 0 1-24.6046875-11.30530219c-11.53602281-13.51362656-9.99788625-34.06422656 3.63110062-45.60024937l140.28902063-122.38071844c5.71857094-4.83963656 13.62349313-7.69068187 21.53940187-7.69068188 0.98880187 0 1.96661719 0 2.96091281 0.11536031a32.35579688 32.35579688 0 0 1 22.30846969 12.51383719l218.28352031 240.59748375a31.81195594 31.81195594 0 0 1 6.26790563 23.94548719c-1.09317562 8.57511-5.60321063 16.15043156-12.41495813 21.42404156-14.40354844 10.98119437-34.72342781 8.23452281-45.49038187-5.938305z"  horiz-adv-x="1024" />

    
    <glyph glyph-name="yonghu1" unicode="&#58885;" d="M618.47466667 388.928a188.416 188.416 0 0 1 82.005333 155.370667c0 103.914667-84.544 188.48-188.48 188.48s-188.48-84.544-188.48-188.48a188.373333 188.373333 0 0 1 82.005334-155.370667C256.46933367 345.34400000000005 142.01599967 212.99199999999996 128.08533367 52.266666999999984a24.192 24.192 0 1 1 48.213333-4.181334C191.27466667 220.62933299999997 338.70933367 355.818667 511.99999967 355.818667s320.725333-135.168 335.68-307.733334a24.192 24.192 0 1 1 48.213334 4.16c-13.909333 160.746667-128.362667 293.077333-277.418667 336.682667z m-246.528 155.349333c0 77.226667 62.826667 140.053333 140.053333 140.053334s140.053333-62.826667 140.053334-140.053334S589.22666667 404.224 511.99999967 404.224s-140.053333 62.826667-140.053333 140.053333z"  horiz-adv-x="1024" />

    
    <glyph glyph-name="shijian" unicode="&#59027;" d="M512-15.999999900000034c-113.55000029 2.59999981-207.9500001 41.52499981-283.20000029 116.79999961C153.55000039 176.0499999 114.5999999 270.44999971000004 112.0000001 384c2.59999981 113.55000029 41.52499981 207.9500001 116.79999961 283.20000029C304.0499999 742.44999961 398.44999971 781.4000000999999 512 783.9999999c113.55000029-2.59999981 207.9500001-41.52499981 283.20000029-116.79999961C870.44999961 591.9500001 909.4000001 497.55000029 911.9999999 384c-2.59999981-113.55000029-41.52499981-207.9500001-116.79999961-283.20000029C719.9500001 25.550000390000037 625.55000029-13.400000100000057 512-15.999999900000034z m247.8499998 152.1500001c65.99999971 65.99999971 99.8499999 148.1000001 102.17500049 246.70000019-2.32499971 100.90000019-36.1749999 182.99999971-102.17500049 248.99999941-65.99999971 65.99999971-148.1000001 99.8499999-246.70000019 102.17500049-100.90000019-2.32499971-182.99999971-36.1749999-248.99999941-102.17500049-65.99999971-65.99999971-99.8499999-148.1000001-102.17500049-246.70000019 2.32499971-100.90000019 36.1749999-182.99999971 102.17500049-248.99999941 65.7500001-65.7500001 147.47500019-99.60000029 247.8499998-102.1250004 100.37499961 2.5250001 182.09999971 36.37500029 247.8499998 102.12500039zM512 384h174.9999999a24.99999961 24.99999961 0 0 0 0-50.0000001h-199.99999951a24.99999961 24.99999961 0 0 0-25.00000049 25.00000049V609a24.99999961 24.99999961 0 0 0 50.0000001 0v-225z"  horiz-adv-x="1024" />

    
    <glyph glyph-name="qiandai" unicode="&#58911;" d="M689.907071 291.943434h-148.945455V296.080808c2.068687 0 2.068687 2.068687 4.137374 2.068687 86.884848 82.747475 86.884848 82.747475 88.953535 93.090909 4.137374 16.549495-6.206061 33.09899-22.755555 37.236364-12.412121 4.137374-24.824242-2.068687-33.09899-12.412122-6.206061-6.206061-37.236364-37.236364-68.266667-66.197979-26.892929 31.030303-53.785859 59.991919-57.923232 68.266666-6.206061 10.343434-18.618182 16.549495-31.030303 14.480808-16.549495-2.068687-28.961616-18.618182-24.824243-35.167676 2.068687-10.343434 2.068687-12.412121 80.678788-101.365657l2.068687-2.068687v-2.068687h-134.464646c-16.549495 0-31.030303-14.480808-31.030303-31.030303s14.480808-31.030303 31.030303-31.030303h134.464646v-62.060606h-78.610101c-16.549495 0-31.030303-14.480808-31.030303-31.030303s14.480808-31.030303 31.030303-31.030303h78.610101v-91.022222c0-16.549495 14.480808-31.030303 31.030303-31.030303s31.030303 14.480808 31.030303 31.030303v91.022222h84.816162c16.549495 0 31.030303 14.480808 31.030303 31.030303s-14.480808 31.030303-31.030303 31.030303h-84.816162v62.060606h148.945455c16.549495 0 31.030303 14.480808 31.030303 31.030303s-14.480808 31.030303-31.030303 31.030303zM629.915152 583.628283c39.305051 16.549495 70.335354 39.305051 93.090909 70.335353 49.648485 64.129293 43.442424 136.533333 41.373737 151.014142C762.311111 891.862626 543.030303 896 499.587879 896 456.145455 896 243.070707 891.862626 234.79596 811.183838c0-4.137374-10.343434-80.678788 45.511111-153.082828 24.824242-31.030303 59.991919-55.854545 101.365656-74.472727-142.739394-64.129293-295.822222-219.280808-295.822222-380.638384 0-200.662626 165.494949-330.989899 422.012121-330.989899 264.791919 0 428.218182 124.121212 428.218182 322.715152 2.068687 161.357576-161.357576 322.715152-306.165656 388.913131zM329.955556 695.337374c-35.167677 45.511111-35.167677 93.090909-35.167677 105.50303 16.549495 12.412121 86.884848 33.09899 204.8 33.09899 115.846465 0 188.250505-20.686869 202.731313-33.09899v-4.137374s8.274747-57.923232-28.961616-105.50303c-33.09899-43.442424-93.090909-68.266667-177.907071-74.472727-76.541414 10.343434-132.39596 37.236364-165.494949 78.610101z m179.975757-761.276768c-223.418182 0-359.951515 103.434343-359.951515 268.929293 0 173.769697 231.692929 349.608081 359.951515 349.608081 128.258586 0 366.157576-190.319192 366.157576-357.882828 0-163.426263-136.533333-260.654545-366.157576-260.654546z"  horiz-adv-x="1024" />

    
    <glyph glyph-name="fenlei_" unicode="&#58913;" d="M328.533333 413.866667H211.2c-83.2 0-151.466667 68.266667-151.466667 151.466666V684.8C59.733333 768 128 836.266667 211.2 836.266667h117.333333c83.2 0 151.466667-68.266667 151.466667-151.466667v-117.333333c2.133333-85.333333-66.133333-153.6-151.466667-153.6zM211.2 772.266667c-49.066667 0-87.466667-40.533333-87.466667-87.466667v-117.333333c0-49.066667 40.533333-87.466667 87.466667-87.466667h117.333333c49.066667 0 87.466667 40.533333 87.466667 87.466667V684.8c0 49.066667-40.533333 87.466667-87.466667 87.466667H211.2zM810.666667 413.866667h-117.333334c-83.2 0-151.466667 68.266667-151.466666 151.466666V684.8c0 83.2 68.266667 151.466667 151.466666 151.466667H810.666667c83.2 0 151.466667-68.266667 151.466666-151.466667v-117.333333c0-85.333333-68.266667-153.6-151.466666-153.6zM693.333333 772.266667c-49.066667 0-87.466667-40.533333-87.466666-87.466667v-117.333333c0-49.066667 40.533333-87.466667 87.466666-87.466667H810.666667c49.066667 0 87.466667 40.533333 87.466666 87.466667V684.8c0 49.066667-40.533333 87.466667-87.466666 87.466667h-117.333334zM328.533333-68.266667H211.2c-83.2 0-151.466667 68.266667-151.466667 151.466667v117.333333c0 83.2 68.266667 151.466667 151.466667 151.466667h117.333333c83.2 0 151.466667-68.266667 151.466667-151.466667v-117.333333c2.133333-83.2-66.133333-151.466667-151.466667-151.466667zM211.2 290.133333c-49.066667 0-87.466667-40.533333-87.466667-87.466666V85.333333c0-49.066667 40.533333-87.466667 87.466667-87.466666h117.333333c49.066667 0 87.466667 40.533333 87.466667 87.466666v117.333334c0 49.066667-40.533333 87.466667-87.466667 87.466666H211.2zM906.666667 241.066667H603.733333c-17.066667 0-32 14.933333-32 32s14.933333 32 32 32h305.066667c17.066667 0 32-14.933333 32-32s-17.066667-32-34.133333-32zM855.466667 98.133333H603.733333c-17.066667 0-32 14.933333-32 32s14.933333 32 32 32h251.733334c17.066667 0 32-14.933333 32-32s-14.933333-32-32-32zM729.6-46.933333h-125.866667c-17.066667 0-32 14.933333-32 32s14.933333 32 32 32h125.866667c17.066667 0 32-14.933333 32-32s-14.933333-32-32-32z"  horiz-adv-x="1024" />

    
    <glyph glyph-name="xiazai" unicode="&#58914;" d="M814.933333-12.8H236.8c-108.8 0-198.4 89.6-198.4 198.4v181.333333c0 17.066667 14.933333 32 32 32s32-14.933333 32-32v-181.333333c0-74.666667 59.733333-134.4 134.4-134.4h578.133333c74.666667 0 134.4 59.733333 134.4 134.4V362.666667c0 17.066667 14.933333 32 32 32s32-14.933333 32-32v-177.066667c0-108.8-89.6-198.4-198.4-198.4zM552.533333 258.133333c-17.066667 0-32 14.933333-32 32V814.933333c0 17.066667 14.933333 32 32 32s32-14.933333 32-32v-524.8c0-17.066667-14.933333-32-32-32zM552.533333 258.133333c-8.533333 0-17.066667 2.133333-23.466666 8.533334-12.8 12.8-12.8 32 0 44.8l262.4 262.4c12.8 12.8 32 12.8 44.8 0 12.8-12.8 12.8-32 0-44.8L573.866667 266.666667c-6.4-4.266667-14.933333-8.533333-21.333334-8.533334zM552.533333 258.133333c-8.533333 0-17.066667 2.133333-23.466666 8.533334l-130.133334 130.133333c-12.8 12.8-12.8 32 0 44.8 12.8 12.8 32 12.8 44.8 0l130.133334-130.133333c12.8-12.8 12.8-32 0-44.8-6.4-4.266667-14.933333-8.533333-21.333334-8.533334zM339.2 471.466667c-8.533333 0-17.066667 2.133333-23.466667 8.533333l-49.066666 49.066667c-12.8 12.8-12.8 32 0 44.8 12.8 12.8 32 12.8 44.8 0l49.066666-49.066667c12.8-12.8 12.8-32 0-44.8-4.266667-6.4-12.8-8.533333-21.333333-8.533333z"  horiz-adv-x="1024" />

    
    <glyph glyph-name="fenxiang" unicode="&#58915;" d="M791.466667-61.866667H243.2c-113.066667 0-206.933333 91.733333-206.933333 206.933334V445.866667c0 113.066667 91.733333 206.933333 206.933333 206.933333h200.533333c17.066667 0 32-14.933333 32-32s-14.933333-32-32-32h-200.533333c-78.933333 0-142.933333-64-142.933333-142.933333v-302.933334c0-78.933333 64-142.933333 142.933333-142.933333h548.266667c78.933333 0 142.933333 64 142.933333 142.933333v83.2c0 17.066667 14.933333 32 32 32s32-14.933333 32-32v-83.2c-2.133333-113.066667-93.866667-204.8-206.933333-204.8zM501.333333 147.2h-6.4c-17.066667 4.266667-27.733333 21.333333-23.466666 38.4 59.733333 273.066667 260.266667 514.133333 497.066666 597.333333 14.933333 6.4 34.133333-2.133333 38.4-19.2 6.4-17.066667-2.133333-34.133333-19.2-40.533333C770.133333 646.4 586.666667 426.666667 533.333333 172.8c-4.266667-14.933333-17.066667-25.6-32-25.6zM977.066667 725.333333h-4.266667L676.266667 774.4c-17.066667 2.133333-29.866667 19.2-25.6 36.266667 2.133333 17.066667 19.2 29.866667 36.266666 25.6L983.466667 789.333333c17.066667-2.133333 29.866667-19.2 25.6-36.266666-2.133333-17.066667-14.933333-27.733333-32-27.733334zM872.533333 439.466667c-4.266667 0-8.533333 0-10.666666 2.133333-17.066667 6.4-25.6 25.6-19.2 40.533333l104.533333 281.6c6.4 17.066667 25.6 25.6 40.533333 19.2 17.066667-6.4 25.6-25.6 19.2-40.533333l-104.533333-281.6c-4.266667-12.8-17.066667-21.333333-29.866667-21.333333z"  horiz-adv-x="1024" />

    
    <glyph glyph-name="lishijilu" unicode="&#58916;" d="M526.933333-70.4C275.2-70.4 72.533333 134.4 72.533333 384 72.533333 633.6 277.333333 838.4 526.933333 838.4S981.333333 633.6 981.333333 384c0-249.6-204.8-454.4-454.4-454.4z m0 844.8C311.466667 774.4 136.533333 599.466667 136.533333 384c0-215.466667 174.933333-390.4 390.4-390.4 213.333333 0 390.4 174.933333 390.4 390.4 0 215.466667-177.066667 390.4-390.4 390.4zM686.933333 352h-123.733333c-38.4 0-70.4 32-70.4 70.4v147.2c0 17.066667 14.933333 32 32 32s32-14.933333 32-32v-147.2c0-4.266667 2.133333-6.4 6.4-6.4h123.733333c17.066667 0 32-14.933333 32-32s-12.8-32-32-32z"  horiz-adv-x="1024" />

    
    <glyph glyph-name="shoucang_" unicode="&#58917;" d="M273.066667-49.066667c-14.933333 0-29.866667 4.266667-40.533334 12.8-21.333333 14.933333-32 42.666667-27.733333 68.266667l40.533333 236.8c0 2.133333 0 4.266667-2.133333 6.4l-172.8 168.533333c-19.2 19.2-25.6 46.933333-17.066667 72.533334 8.533333 25.6 29.866667 44.8 57.6 46.933333L347.733333 597.333333c2.133333 0 4.266667 2.133333 4.266667 4.266667l23.466667 44.8c8.533333 14.933333 27.733333 21.333333 42.666666 14.933333 14.933333-8.533333 21.333333-27.733333 14.933334-42.666666l-23.466667-44.8c-10.666667-21.333333-29.866667-34.133333-53.333333-38.4L119.466667 499.2c-2.133333 0-4.266667-2.133333-4.266667-4.266667s0-4.266667 2.133333-6.4l172.8-168.533333c17.066667-17.066667 23.466667-38.4 19.2-61.866667l-42.666666-236.8c0-2.133333 0-4.266667 2.133333-6.4 2.133333-2.133333 4.266667-2.133333 6.4 0l213.333333 113.066667c21.333333 10.666667 44.8 10.666667 66.133334 0l213.333333-113.066667c2.133333-2.133333 4.266667-2.133333 6.4 0 2.133333 2.133333 2.133333 4.266667 2.133333 6.4l-40.533333 236.8c-4.266667 23.466667 4.266667 46.933333 21.333333 61.866667l46.933334 46.933333c12.8 12.8 32 12.8 44.8 0 12.8-12.8 12.8-32 0-44.8l-46.933334-46.933333c-2.133333-2.133333-2.133333-4.266667-2.133333-6.4l40.533333-236.8c4.266667-25.6-6.4-53.333333-27.733333-68.266667-21.333333-14.933333-51.2-17.066667-74.666667-6.4l-213.333333 110.933334h-6.4l-213.333333-113.066667c-8.533333-2.133333-21.333333-4.266667-32-4.266667zM896 379.733333c-8.533333 0-17.066667 4.266667-23.466667 10.666667-12.8 12.8-12.8 32 0 44.8l55.466667 53.333333s2.133333 2.133333 2.133333 6.4c0 2.133333-2.133333 4.266667-8.533333 6.4L682.666667 535.466667c-21.333333 2.133333-40.533333 17.066667-51.2 38.4L526.933333 789.333333c-2.133333 4.266667-8.533333 4.266667-10.666666 0l-40.533334-83.2c-8.533333-14.933333-27.733333-21.333333-42.666666-14.933333-14.933333 8.533333-21.333333 27.733333-14.933334 42.666667l40.533334 83.2c12.8 23.466667 36.266667 38.4 64 38.4s51.2-14.933333 64-38.4l106.666666-215.466667c0-2.133333 2.133333-2.133333 2.133334-4.266667l236.8-34.133333c27.733333-4.266667 51.2-23.466667 59.733333-49.066667 8.533333-25.6 2.133333-53.333333-17.066667-70.4l-55.466666-53.333333c-6.4-6.4-14.933333-10.666667-23.466667-10.666667z"  horiz-adv-x="1024" />

    
    <glyph glyph-name="xihuan_" unicode="&#58918;" d="M512-64c-23.466667 0-46.933333 6.4-66.133333 21.333333C298.666667 57.6 49.066667 290.133333 55.466667 518.4c4.266667 142.933333 128 264.533333 270.933333 264.533333 68.266667 0 134.4-25.6 183.466667-72.533333 61.866667 57.6 145.066667 83.2 230.4 68.266667 121.6-19.2 215.466667-121.6 226.133333-243.2C989.866667 245.333333 620.8-14.933333 578.133333-42.666667c-19.2-12.8-42.666667-21.333333-66.133333-21.333333zM326.4 718.933333c-108.8 0-204.8-91.733333-206.933333-202.666666-6.4-200.533333 234.666667-418.133333 362.666666-505.6 19.2-12.8 42.666667-12.8 59.733334 0C682.666667 106.666667 919.466667 324.266667 902.4 533.333333c-6.4 91.733333-78.933333 168.533333-170.666667 183.466667-68.266667 10.666667-132.266667-10.666667-181.333333-57.6-21.333333-21.333333-55.466667-21.333333-76.8 0-38.4 38.4-91.733333 59.733333-147.2 59.733333 2.133333 0 2.133333 0 0 0zM576 469.333333c-23.466667 4.266667-44.8-4.266667-59.733333-19.2-2.133333-2.133333-6.4-2.133333-8.533334 0-12.8 12.8-29.866667 19.2-46.933333 19.2-36.266667 0-66.133333-29.866667-68.266667-66.133333-2.133333-61.866667 68.266667-125.866667 106.666667-151.466667 8.533333-6.4 19.2-6.4 27.733333 0 38.4 25.6 110.933333 89.6 106.666667 155.733334-4.266667 32-27.733333 57.6-57.6 61.866666z"  horiz-adv-x="1024" />

    
    <glyph glyph-name="dianzan" unicode="&#58919;" d="M196.266667 6.3999996700000565H170.666667c-57.6 0-106.666667 46.933333-106.666667 106.666667V401.06666667c0 57.6 46.933333 106.666667 106.666667 106.666667h27.733333c57.6 0 106.666667-46.933333 106.666667-106.666667v-288c-2.133333-57.6-49.066667-106.666667-108.8-106.666667zM170.666667 441.59999967c-23.466667 0-42.666667-19.2-42.666667-42.666666v-288c0-23.466667 19.2-42.666667 42.666667-42.666667h27.733333c23.466667 0 42.666667 19.2 42.666667 42.666667V401.06666667c0 23.466667-19.2 42.666667-42.666667 42.666667H170.666667zM936.533333 460.79999967c-25.6 27.733333-61.866667 42.666667-100.266666 42.666667l-155.733334 2.133333c8.533333 25.6 14.933333 61.866667 10.666667 100.266667-10.666667 100.266667-85.333333 168.533333-142.933333 162.133333-29.866667-2.133333-61.866667-25.6-57.6-83.2 0-2.133333 10.666667-125.866667-72.533334-219.733333-25.6-25.6-38.4-59.733333-38.4-96v-221.866667c0-76.8 61.866667-138.666667 138.666667-138.666666l268.8-2.133334c113.066667 0 183.466667 134.4 189.866667 358.4-2.133333 34.133333-14.933333 70.4-40.533334 96z m-151.466666-390.4l-268.8 2.133334c-40.533333 0-74.666667 34.133333-74.666667 74.666666V366.93333367c0 19.2 8.533333 38.4 21.333333 53.333333 102.4 115.2 89.6 262.4 89.6 268.8V703.99999967c4.266667 0 10.666667-2.133333 21.333334-10.666666 21.333333-14.933333 44.8-49.066667 51.2-96 6.4-55.466667-19.2-108.8-19.2-108.8-2.133333-4.266667-4.266667-8.533333-4.266667-14.933334v-4.266666c2.133333-17.066667 14.933333-29.866667 32-29.866667l200.533333-2.133333c21.333333 0 40.533333-8.533333 55.466667-23.466667 12.8-14.933333 21.333333-32 19.2-51.2-4.266667-174.933333-53.333333-292.266667-123.733333-292.266667z"  horiz-adv-x="1024" />

    
    <glyph glyph-name="huatong" unicode="&#58920;" d="M718.933333-89.6c-17.066667 0-34.133333 8.533333-46.933333 23.466667V-64l-256 398.933333c-8.533333 14.933333-4.266667 34.133333 10.666667 44.8 14.933333 8.533333 34.133333 4.266667 44.8-10.666666l238.933333-373.333334-100.266667 403.2c-4.266667 17.066667 6.4 34.133333 23.466667 38.4 17.066667 4.266667 34.133333-6.4 38.4-23.466666l108.8-439.466667c2.133333-25.6-12.8-51.2-36.266667-61.866667-10.666667 0-17.066667-2.133333-25.6-2.133333zM456.533333 320c-110.933333 0-215.466667 66.133333-256 177.066667-53.333333 140.8 17.066667 300.8 157.866667 354.133333 68.266667 25.6 142.933333 23.466667 211.2-6.4 66.133333-29.866667 117.333333-83.2 145.066667-151.466667 25.6-68.266667 23.466667-142.933333-6.4-209.066666s-83.2-117.333333-151.466667-145.066667c-34.133333-12.8-68.266667-19.2-100.266667-19.2z m0 484.266667c-25.6 0-51.2-4.266667-74.666666-14.933334-108.8-40.533333-162.133333-162.133333-121.6-270.933333 40.533333-108.8 162.133333-162.133333 270.933333-121.6 53.333333 19.2 93.866667 59.733333 117.333333 110.933333 23.466667 51.2 23.466667 108.8 4.266667 160-19.2 53.333333-59.733333 93.866667-110.933333 117.333334-27.733333 12.8-55.466667 19.2-85.333334 19.2z"  horiz-adv-x="1024" />

    
    <glyph glyph-name="xiaoxi" unicode="&#58921;" d="M512-27.733333c-23.466667 0-46.933333 12.8-57.6 34.133333l-93.866667 136.533333c-8.533333 14.933333-23.466667 23.466667-42.666666 23.466667H136.533333c-61.866667 0-110.933333 51.2-110.933333 110.933333V652.8c0 61.866667 51.2 110.933333 110.933333 110.933333h753.066667c61.866667 0 110.933333-51.2 110.933333-110.933333V277.333333c0-61.866667-51.2-110.933333-110.933333-110.933333h-179.2c-17.066667 0-32-8.533333-40.533333-23.466667l-2.133334-2.133333-96-134.4c-14.933333-23.466667-36.266667-34.133333-59.733333-34.133333z m-96 200.533333l93.866667-136.533333s2.133333-2.133333 4.266666-2.133334 2.133333 2.133333 4.266667 2.133334l2.133333 2.133333 96 134.4c19.2 34.133333 57.6 53.333333 96 53.333333h179.2c25.6 0 46.933333 21.333333 46.933334 46.933334V516.266667v4.266666 132.266667c0 25.6-21.333333 46.933333-46.933334 46.933333H136.533333c-25.6 0-46.933333-21.333333-46.933333-46.933333V277.333333c0-25.6 21.333333-46.933333 46.933333-46.933333H320c38.4-2.133333 74.666667-21.333333 96-57.6zM296.533333 462.933333m-53.333333 0a53.333333 53.333333 0 1 1 106.666667 0 53.333333 53.333333 0 1 1-106.666667 0ZM512 462.933333m-53.333333 0a53.333333 53.333333 0 1 1 106.666666 0 53.333333 53.333333 0 1 1-106.666666 0ZM727.466667 462.933333m-53.333334 0a53.333333 53.333333 0 1 1 106.666667 0 53.333333 53.333333 0 1 1-106.666667 0Z"  horiz-adv-x="1024" />

    
    <glyph glyph-name="bili" unicode="&#58954;" d="M480-49.066667H469.333333C253.866667-42.666667 76.8 134.4 70.4 347.733333 64 569.6 232.533333 755.2 454.4 768c14.933333 0 27.733333-4.266667 38.4-14.933333 12.8-10.666667 19.2-23.466667 19.2-38.4v-322.133334H836.266667c14.933333 0 29.866667-6.4 38.4-17.066666 10.666667-10.666667 14.933333-25.6 14.933333-40.533334-14.933333-217.6-194.133333-384-409.6-384zM448 704c-181.333333-17.066667-317.866667-170.666667-313.6-354.133333 4.266667-179.2 155.733333-330.666667 334.933333-334.933334 183.466667-4.266667 337.066667 132.266667 354.133334 313.6H507.733333c-32 0-59.733333 25.6-59.733333 59.733334V704z m407.466667-366.933333zM908.8 452.266667h-277.333333c-25.6 0-49.066667 21.333333-49.066667 49.066666V772.266667c0 12.8 4.266667 23.466667 14.933333 32 8.533333 8.533333 21.333333 12.8 34.133334 12.8 164.266667-12.8 309.333333-155.733333 322.133333-315.733334 0-12.8-4.266667-23.466667-10.666667-34.133333-8.533333-8.533333-21.333333-14.933333-34.133333-14.933333z m-19.2 42.666666z m-241.066667 21.333334h238.933334c-19.2 115.2-123.733333 215.466667-238.933334 234.666666v-234.666666z"  horiz-adv-x="1024" />

    
    <glyph glyph-name="bianji" unicode="&#58955;" d="M934.4-53.333333659999994H55.466667c-17.066667 0-32 14.933333-32 32s14.933333 32 32 32h876.8c17.066667 0 32-14.933333 32-32s-12.8-32-29.866667-32zM806.4 499.20000034c-6.4 0-14.933333 2.133333-21.333333 8.533333L618.666667 648.53333334c-12.8 10.666667-14.933333 32-4.266667 44.8 10.666667 12.8 32 14.933333 44.8 4.266667l166.4-142.933334c12.8-10.666667 14.933333-32 4.266667-44.8-6.4-6.4-14.933333-10.666667-23.466667-10.666666zM290.133333 53.33333333999997c-8.533333 0-19.2 4.266667-25.6 10.666667-12.8 10.666667-17.066667 27.733333-12.8 44.8l61.866667 211.2c8.533333 25.6 21.333333 46.933333 38.4 66.133333L676.266667 765.8666663399999c25.6 29.866667 68.266667 32 96 8.533334l110.933333-93.866667c14.933333-12.8 23.466667-27.733333 23.466667-46.933333 2.133333-19.2-4.266667-36.266667-17.066667-49.066667l-322.133333-384c-17.066667-19.2-36.266667-34.133333-57.6-46.933333h-2.133334l-200.533333-96c-4.266667-2.133333-10.666667-4.266667-17.066667-4.266667z m23.466667 36.266667c0-2.133333 0 0 0 0z m-32 25.6s-2.133333 0-2.133333-2.133334l2.133333 2.133334zM727.466667 725.33333334c-2.133333 0-2.133333 0-4.266667-2.133333L398.933333 343.46666633999996c-10.666667-12.8-19.2-27.733333-25.6-44.8l-46.933333-160 151.466667 72.533334c14.933333 8.533333 27.733333 19.2 38.4 32l324.266666 381.866666c0 2.133333 2.133333 2.133333 2.133334 4.266667 0 0 0 2.133333-2.133334 4.266667l-110.933333 93.866666c0-2.133333 0-2.133333-2.133333-2.133333zM494.933333 181.33333333999997z"  horiz-adv-x="1024" />

    
    <glyph glyph-name="bianji1" unicode="&#58956;" d="M891.733333 556.8c-6.4 0-14.933333 2.133333-21.333333 8.533333l-117.333333 100.266667c-12.8 10.666667-14.933333 32-4.266667 44.8s32 14.933333 44.8 4.266667l117.333333-100.266667c12.8-10.666667 14.933333-32 4.266667-44.8-4.266667-8.533333-14.933333-12.8-23.466667-12.8zM486.4 200.533333c-8.533333 0-17.066667 2.133333-25.6 8.533334-12.8 10.666667-17.066667 27.733333-10.666667 42.666666l51.2 174.933334c8.533333 21.333333 19.2 40.533333 32 55.466666l268.8 320c10.666667 12.8 25.6 21.333333 42.666667 21.333334 17.066667 2.133333 32-4.266667 44.8-14.933334L981.333333 729.6c25.6-21.333333 29.866667-61.866667 6.4-87.466667L721.066667 326.4c-12.8-17.066667-29.866667-29.866667-49.066667-40.533333h-2.133333l-166.4-78.933334c-4.266667-4.266667-10.666667-6.4-17.066667-6.4z m25.6 36.266667v0z m-34.133333 27.733333s-2.133333 0-2.133334-2.133333l2.133334 2.133333zM851.2 759.466667L582.4 443.733333c-8.533333-10.666667-14.933333-21.333333-19.2-34.133333l-36.266667-121.6 115.2 55.466667c10.666667 6.4 21.333333 14.933333 29.866667 25.6L940.8 682.666667l-89.6 76.8z m-194.133333-445.866667zM424.533333-91.733333h-134.4c-128 0-230.4 104.533333-230.4 230.4V520.533333c0 128 104.533333 230.4 230.4 230.4h192c17.066667 0 32-14.933333 32-32s-14.933333-32-32-32h-192c-91.733333 0-166.4-74.666667-166.4-166.4v-381.866666c0-91.733333 74.666667-166.4 166.4-166.4h134.4c17.066667 0 32-14.933333 32-32s-14.933333-32-32-32zM669.866667-91.733333H428.8c-17.066667 0-32 14.933333-32 32s14.933333 32 32 32h241.066667c91.733333 0 166.4 74.666667 166.4 166.4v110.933333c0 17.066667 14.933333 32 32 32s32-14.933333 32-32v-110.933333c2.133333-128-102.4-230.4-230.4-230.4z"  horiz-adv-x="1024" />

    
    <glyph glyph-name="VIP" unicode="&#58957;" d="M441.6 625.066667c-17.066667 6.4-34.133333 0-42.666667-17.066667l-149.333333-354.133333-149.333333 354.133333c-6.4 17.066667-25.6 23.466667-42.666667 17.066667-14.933333-6.4-21.333333-25.6-14.933333-42.666667l179.2-422.4c0-2.133333 2.133333-4.266667 4.266666-6.4l2.133334-2.133333 6.4-6.4h2.133333c2.133333 0 2.133333-2.133333 4.266667-2.133334h4.266666c2.133333 0 6.4-2.133333 8.533334-2.133333 2.133333 0 6.4 0 8.533333 2.133333h4.266667c2.133333 0 2.133333 2.133333 4.266666 2.133334h2.133334l6.4 6.4 2.133333 2.133333c2.133333 2.133333 2.133333 4.266667 4.266667 6.4l179.2 422.4c0 17.066667-6.4 36.266667-23.466667 42.666667zM435.2 140.8c-4.266667 0-8.533333 0-12.8 2.133333-17.066667 6.4-23.466667 25.6-17.066667 42.666667l179.2 422.4c6.4 17.066667 25.6 23.466667 42.666667 17.066667 17.066667-6.4 23.466667-25.6 17.066667-42.666667l-179.2-422.4c-6.4-12.8-17.066667-19.2-29.866667-19.2zM797.866667 627.2c-12.8 0-25.6-6.4-29.866667-19.2l-179.2-422.4c-6.4-17.066667 0-34.133333 17.066667-42.666667 4.266667-2.133333 8.533333-2.133333 12.8-2.133333 12.8 0 23.466667 6.4 29.866666 19.2l51.2 123.733333c29.866667-17.066667 61.866667-27.733333 98.133334-27.733333 102.4 0 185.6 83.2 185.6 185.6s-83.2 185.6-185.6 185.6z m0-307.2c-25.6 0-51.2 8.533333-72.533334 23.466667l91.733334 217.6c57.6-8.533333 102.4-59.733333 102.4-119.466667 0-68.266667-53.333333-121.6-121.6-121.6z"  horiz-adv-x="1024" />

    
    <glyph glyph-name="bijiben" unicode="&#58958;" d="M806.4 115.20000033999997H183.466667c-83.2 0-151.466667 68.266667-151.466667 151.466666V582.40000034c0 83.2 68.266667 151.466667 151.466667 151.466666h622.933333c83.2 0 151.466667-68.266667 151.466667-151.466666v-315.733334c0-83.2-68.266667-151.466667-151.466667-151.466666zM183.466667 669.8666663399999c-49.066667 0-87.466667-38.4-87.466667-87.466666v-315.733334c0-49.066667 38.4-87.466667 87.466667-87.466666h622.933333c49.066667 0 87.466667 38.4 87.466667 87.466666V582.40000034c0 49.066667-38.4 87.466667-87.466667 87.466666H183.466667zM925.866667-19.199999660000003H64c-17.066667 0-32 14.933333-32 32s14.933333 32 32 32h861.866667c17.066667 0 32-14.933333 32-32s-14.933333-32-32-32z"  horiz-adv-x="1024" />

    
    <glyph glyph-name="bingbang" unicode="&#58959;" d="M885.333333 132.26666634000003c-4.266667 0-8.533333 0-12.8 2.133334l-209.066666 96c-17.066667 6.4-23.466667 25.6-14.933334 42.666666 6.4 17.066667 25.6 23.466667 42.666667 14.933334l209.066667-96c17.066667-6.4 23.466667-25.6 14.933333-42.666667-6.4-10.666667-19.2-17.066667-29.866667-17.066667zM512 81.06666633999998c-23.466667 0-44.8 4.266667-68.266667 14.933334L200.533333 211.20000033999997c-59.733333 27.733333-104.533333 76.8-128 138.666666-23.466667 61.866667-19.2 128 8.533334 187.733334 27.733333 59.733333 76.8 104.533333 138.666666 128 61.866667 23.466667 128 19.2 187.733334-8.533334l245.333333-113.066666c38.4-19.2 68.266667-51.2 83.2-91.733334 14.933333-40.533333 12.8-85.333333-4.266667-123.733333L661.333333 174.93333334c-29.866667-57.6-87.466667-93.866667-149.333333-93.866667z m-209.066667 533.333334c-21.333333 0-42.666667-4.266667-61.866666-10.666667-44.8-17.066667-81.066667-51.2-102.4-93.866667-21.333333-44.8-23.466667-93.866667-6.4-138.666666 17.066667-44.8 51.2-81.066667 93.866666-102.4l245.333334-113.066667c49.066667-23.466667 106.666667-2.133333 130.133333 46.933333l70.4 153.6c10.666667 23.466667 12.8 49.066667 2.133333 74.666667s-27.733333 44.8-51.2 55.466667L379.733333 597.3333333400001c-23.466667 12.8-49.066667 17.066667-76.8 17.066667z"  horiz-adv-x="1024" />

    
    <glyph glyph-name="dianhua" unicode="&#58960;" d="M825.6 275.2c-59.733333 10.666667-123.733333-8.533333-164.266667-51.2-8.533333-8.533333-23.466667-10.666667-36.266666-6.4-149.333333 49.066667-234.666667 136.533333-281.6 202.666667-10.666667 14.933333-10.666667 36.266667 2.133333 49.066666 23.466667 23.466667 40.533333 55.466667 46.933333 89.6 8.533333 44.8 0 89.6-25.6 128-25.6 38.4-64 64-108.8 70.4-44.8 8.533333-89.6-2.133333-128-27.733333C93.866667 704 68.266667 663.466667 59.733333 618.666667v-4.266667c-25.6-140.8 23.466667-285.866667 140.8-409.6C313.6 85.333333 477.866667 0 661.333333-34.133333c42.666667-8.533333 85.333333-12.8 128-14.933334h10.666667c87.466667 0 155.733333 53.333333 170.666667 132.266667 14.933333 87.466667-49.066667 172.8-145.066667 192z m81.066667-181.333333c-8.533333-49.066667-55.466667-81.066667-115.2-78.933334-38.4 2.133333-78.933333 6.4-119.466667 14.933334-170.666667 32-322.133333 110.933333-426.666667 219.733333-102.4 106.666667-145.066667 234.666667-123.733333 354.133333v4.266667c4.266667 27.733333 21.333333 53.333333 44.8 68.266667 23.466667 17.066667 51.2 21.333333 78.933333 17.066666 27.733333-4.266667 51.2-21.333333 66.133334-44.8 14.933333-23.466667 21.333333-51.2 17.066666-81.066666-4.266667-21.333333-14.933333-40.533333-29.866666-55.466667-34.133333-34.133333-36.266667-89.6-8.533334-130.133333 74.666667-104.533333 183.466667-183.466667 313.6-226.133334 38.4-12.8 78.933333-2.133333 102.4 23.466667 25.6 27.733333 66.133333 38.4 104.533334 32 64-10.666667 106.666667-64 96-117.333333zM279.466667 556.8c-12.8 0-21.333333 8.533333-21.333334 21.333333s-4.266667 27.733333-14.933333 36.266667c-8.533333 6.4-23.466667 8.533333-40.533333 4.266667-10.666667-2.133333-23.466667 4.266667-25.6 17.066666-4.266667 10.666667 4.266667 23.466667 14.933333 25.6 38.4 8.533333 64-2.133333 76.8-12.8 19.2-14.933333 29.866667-40.533333 29.866667-70.4 2.133333-12.8-8.533333-21.333333-19.2-21.333333zM853.333333 74.666667c-12.8 0-21.333333 8.533333-21.333333 21.333333s-4.266667 27.733333-14.933333 36.266667c-8.533333 6.4-23.466667 8.533333-40.533334 4.266666-10.666667-2.133333-23.466667 4.266667-25.6 17.066667-2.133333 10.666667 4.266667 23.466667 17.066667 25.6 38.4 8.533333 64-2.133333 76.8-12.8 19.2-14.933333 29.866667-40.533333 29.866667-70.4 0-10.666667-8.533333-21.333333-21.333334-21.333333z"  horiz-adv-x="1024" />

    
    <glyph glyph-name="diannao" unicode="&#58961;" d="M942.933333 234.666667H81.066667c-17.066667 0-32 14.933333-32 32S64 298.666667 81.066667 298.666667h859.733333c17.066667 0 32-14.933333 32-32S960 234.666667 942.933333 234.666667zM842.666667 110.933333h-661.333334c-72.533333 0-130.133333 57.6-130.133333 130.133334V597.333333c0 72.533333 57.6 130.133333 130.133333 130.133334h663.466667c72.533333 0 130.133333-57.6 130.133333-130.133334v-356.266666c0-72.533333-59.733333-130.133333-132.266666-130.133334z m-661.333334 554.666667c-36.266667 0-66.133333-29.866667-66.133333-66.133333v-356.266667c0-36.266667 29.866667-66.133333 66.133333-66.133333h663.466667c36.266667 0 66.133333 29.866667 66.133333 66.133333V597.333333c0 36.266667-29.866667 66.133333-66.133333 66.133334H181.333333zM736-38.4h-448c-17.066667 0-32 14.933333-32 32s14.933333 32 32 32h450.133333c17.066667 0 32-14.933333 32-32s-14.933333-32-34.133333-32z"  horiz-adv-x="1024" />

    
    <glyph glyph-name="daocha" unicode="&#58962;" d="M313.6-76.8c-17.066667 0-32 14.933333-32 32V366.933333c0 17.066667 14.933333 32 32 32s32-14.933333 32-32V-42.666667c0-19.2-14.933333-34.133333-32-34.133333zM313.6 334.933333c-96 0-172.8 117.333333-172.8 266.666667s74.666667 266.666667 172.8 266.666667 172.8-117.333333 172.8-266.666667-76.8-266.666667-172.8-266.666667z m0 469.333334c-51.2 0-108.8-83.2-108.8-202.666667s57.6-202.666667 108.8-202.666667 108.8 83.2 108.8 202.666667-57.6 202.666667-108.8 202.666667zM731.733333-106.666667c-17.066667 0-32 14.933333-32 32V422.4c0 17.066667 14.933333 32 32 32s32-14.933333 32-32v-497.066667c0-17.066667-14.933333-32-32-32zM864 838.4c-17.066667 0-32-14.933333-32-32v-247.466667c0-17.066667-4.266667-32-10.666667-44.8h-59.733333V840.533333c0 19.2-14.933333 34.133333-32 34.133334s-32-14.933333-32-34.133334V514.133333H640c-6.4 12.8-10.666667 27.733333-10.666667 44.8V802.133333c0 17.066667-14.933333 32-32 32s-32-14.933333-32-32v-245.333333c0-91.733333 74.666667-166.4 166.4-166.4s166.4 74.666667 166.4 166.4V806.4c-2.133333 17.066667-14.933333 32-34.133333 32z"  horiz-adv-x="1024" />

    
    <glyph glyph-name="diantong" unicode="&#58963;" d="M520.533333 494.933333c-81.066667 0-266.666667 8.533333-266.666666 83.2S441.6 661.333333 520.533333 661.333333s266.666667-8.533333 266.666667-83.2-185.6-83.2-266.666667-83.2zM341.333333 578.133333c34.133333-8.533333 93.866667-19.2 179.2-19.2s147.2 10.666667 179.2 19.2c-34.133333 8.533333-93.866667 19.2-179.2 19.2s-147.2-8.533333-179.2-19.2z m386.133334-10.666666zM520.533333 219.733333c-147.2 0-266.666667 164.266667-266.666666 364.8 0 17.066667 14.933333 32 32 32s32-14.933333 32-32c0-166.4 91.733333-300.8 202.666666-300.8 113.066667 0 202.666667 134.4 202.666667 300.8 0 17.066667 14.933333 32 32 32s32-14.933333 32-32c0-200.533333-119.466667-364.8-266.666667-364.8zM520.533333-121.6c-83.2 0-151.466667 68.266667-151.466666 151.466667V281.6c0 17.066667 14.933333 32 32 32s32-14.933333 32-32v-251.733333c0-46.933333 38.4-87.466667 87.466666-87.466667 46.933333 0 87.466667 38.4 87.466667 87.466667V281.6c0 17.066667 14.933333 32 32 32s32-14.933333 32-32v-251.733333c0-83.2-68.266667-151.466667-151.466667-151.466667zM288 680.533333c-10.666667 0-23.466667 6.4-27.733333 17.066667l-42.666667 81.066667c-8.533333 14.933333-2.133333 34.133333 12.8 42.666666 14.933333 8.533333 34.133333 2.133333 42.666667-12.8l42.666666-81.066666c8.533333-14.933333 2.133333-34.133333-12.8-42.666667-4.266667-4.266667-8.533333-4.266667-14.933333-4.266667zM733.866667 691.2c-4.266667 0-10.666667 2.133333-14.933334 4.266667-14.933333 8.533333-21.333333 27.733333-12.8 42.666666l42.666667 81.066667c8.533333 14.933333 27.733333 21.333333 42.666667 12.8s21.333333-27.733333 12.8-42.666667l-42.666667-81.066666c-4.266667-10.666667-14.933333-17.066667-27.733333-17.066667zM520.533333 706.133333c-17.066667 0-32 14.933333-32 32V857.6c0 17.066667 14.933333 32 32 32s32-14.933333 32-32v-119.466667c0-17.066667-14.933333-32-32-32z"  horiz-adv-x="1024" />

    
    <glyph glyph-name="danzi" unicode="&#58964;" d="M742.4-121.6H326.4c-110.933333 0-200.533333 89.6-200.533333 200.533333V667.733333c0 110.933333 89.6 200.533333 200.533333 200.533334h416c110.933333 0 200.533333-89.6 200.533333-200.533334v-588.8c0-110.933333-89.6-200.533333-200.533333-200.533333zM326.4 802.133333c-74.666667 0-136.533333-61.866667-136.533333-136.533333v-588.8c0-74.666667 61.866667-136.533333 136.533333-136.533333h416c74.666667 0 136.533333 61.866667 136.533333 136.533333V667.733333c0 74.666667-61.866667 136.533333-136.533333 136.533334H326.4zM548.266667 597.333333h-168.533334c-17.066667 0-32 14.933333-32 32S362.666667 661.333333 379.733333 661.333333h168.533334c17.066667 0 32-14.933333 32-32s-14.933333-32-32-32zM620.8 371.2H379.733333c-17.066667 0-32 14.933333-32 32s14.933333 32 32 32h241.066667c17.066667 0 32-14.933333 32-32s-14.933333-32-32-32z"  horiz-adv-x="1024" />

    
    <glyph glyph-name="dianying" unicode="&#58965;" d="M512-78.933333c-266.666667 0-482.133333 215.466667-482.133333 482.133333C29.866667 669.866667 245.333333 885.333333 512 885.333333c266.666667 0 482.133333-215.466667 482.133333-482.133333 0-264.533333-215.466667-482.133333-482.133333-482.133333z m0 900.266666c-230.4 0-418.133333-187.733333-418.133333-418.133333S281.6-14.933333 512-14.933333s418.133333 187.733333 418.133333 418.133333S742.4 821.333333 512 821.333333zM512 561.066667c-59.733333 0-106.666667 49.066667-106.666667 106.666666s49.066667 106.666667 106.666667 106.666667 106.666667-49.066667 106.666667-106.666667-46.933333-106.666667-106.666667-106.666666z m0 151.466666c-23.466667 0-42.666667-19.2-42.666667-42.666666s19.2-42.666667 42.666667-42.666667 42.666667 19.2 42.666667 42.666667-19.2 42.666667-42.666667 42.666666zM774.4 296.533333c-59.733333 0-106.666667 49.066667-106.666667 106.666667 0 59.733333 49.066667 106.666667 106.666667 106.666667s106.666667-49.066667 106.666667-106.666667c2.133333-59.733333-46.933333-106.666667-106.666667-106.666667z m0 149.333334c-23.466667 0-42.666667-19.2-42.666667-42.666667s19.2-42.666667 42.666667-42.666667 42.666667 19.2 42.666667 42.666667c2.133333 23.466667-17.066667 42.666667-42.666667 42.666667zM249.6 296.533333c-59.733333 0-106.666667 49.066667-106.666667 106.666667 0 59.733333 49.066667 106.666667 106.666667 106.666667 59.733333 0 106.666667-49.066667 106.666667-106.666667 0-59.733333-46.933333-106.666667-106.666667-106.666667z m0 149.333334c-23.466667 0-42.666667-19.2-42.666667-42.666667s19.2-42.666667 42.666667-42.666667 42.666667 19.2 42.666667 42.666667-19.2 42.666667-42.666667 42.666667zM512 14.933333c-59.733333 0-106.666667 49.066667-106.666667 106.666667s49.066667 106.666667 106.666667 106.666667 106.666667-49.066667 106.666667-106.666667-46.933333-106.666667-106.666667-106.666667z m0 151.466667c-23.466667 0-42.666667-19.2-42.666667-42.666667s19.2-42.666667 42.666667-42.666666 42.666667 19.2 42.666667 42.666666-19.2 42.666667-42.666667 42.666667z"  horiz-adv-x="1024" />

    
    <glyph glyph-name="erji" unicode="&#58966;" d="M878.933333 307.2c-17.066667 0-32 14.933333-32 32v51.2c0 181.333333-147.2 328.533333-328.533333 328.533333C339.2 718.933333 192 571.733333 192 390.4v-40.533333c0-17.066667-14.933333-32-32-32S128 332.8 128 349.866667v40.533333C128 605.866667 305.066667 782.933333 520.533333 782.933333c215.466667 0 392.533333-174.933333 392.533334-392.533333v-51.2c-2.133333-17.066667-14.933333-32-34.133334-32zM185.6 53.333333h-10.666667c-76.8 17.066667-132.266667 85.333333-132.266666 164.266667 0 72.533333 46.933333 136.533333 115.2 157.866667 19.2 6.4 40.533333 2.133333 55.466666-8.533334 17.066667-12.8 25.6-32 25.6-51.2V106.666667c0-17.066667-6.4-32-19.2-42.666667-8.533333-6.4-21.333333-10.666667-34.133333-10.666667z m-8.533333 260.266667c-42.666667-12.8-70.4-53.333333-70.4-96 0-44.8 27.733333-83.2 70.4-96v192zM851.2 53.333333c-12.8 0-23.466667 4.266667-34.133333 12.8-12.8 10.666667-19.2 25.6-19.2 42.666667v209.066667c0 19.2 8.533333 36.266667 23.466666 49.066666 14.933333 10.666667 34.133333 14.933333 53.333334 10.666667 70.4-19.2 119.466667-85.333333 119.466666-160 0-78.933333-55.466667-147.2-132.266666-162.133333-4.266667-2.133333-6.4-2.133333-10.666667-2.133334z m10.666667 260.266667v-192c40.533333 12.8 70.4 53.333333 70.4 96-2.133333 42.666667-29.866667 81.066667-70.4 96z"  horiz-adv-x="1024" />

    
    <glyph glyph-name="fenxiang1" unicode="&#58967;" d="M247.466667 334.933333c-6.4 0-12.8 2.133333-19.2 6.4-14.933333 10.666667-17.066667 29.866667-6.4 44.8l162.133333 213.333334c10.666667 14.933333 29.866667 17.066667 44.8 6.4 14.933333-10.666667 17.066667-29.866667 6.4-44.8l-162.133333-213.333334c-6.4-8.533333-14.933333-12.8-25.6-12.8zM678.4 59.733333h-6.4l-360.533333 81.066667c-17.066667 4.266667-27.733333 21.333333-23.466667 38.4s21.333333 27.733333 38.4 23.466667l360.533333-81.066667c17.066667-4.266667 27.733333-21.333333 23.466667-38.4-4.266667-14.933333-17.066667-23.466667-32-23.466667zM477.866667 531.2c-19.2 0-36.266667 2.133333-55.466667 8.533333-44.8 14.933333-78.933333 44.8-100.266667 87.466667-21.333333 40.533333-23.466667 87.466667-8.533333 132.266667 29.866667 91.733333 128 140.8 219.733333 108.8 91.733333-29.866667 140.8-128 108.8-219.733334-23.466667-72.533333-91.733333-117.333333-164.266666-117.333333z m0 281.6c-17.066667 0-34.133333-4.266667-49.066667-10.666667-25.6-12.8-44.8-36.266667-55.466667-64-19.2-57.6 12.8-119.466667 68.266667-138.666666 57.6-19.2 119.466667 12.8 138.666667 68.266666 19.2 57.6-12.8 119.466667-68.266667 138.666667-10.666667 4.266667-21.333333 6.4-34.133333 6.4zM819.2-83.2c-96 0-172.8 78.933333-172.8 172.8s76.8 172.8 172.8 172.8 172.8-78.933333 172.8-172.8-76.8-172.8-172.8-172.8z m0 283.733333c-59.733333 0-108.8-49.066667-108.8-108.8s49.066667-108.8 108.8-108.8 108.8 49.066667 108.8 108.8-46.933333 108.8-108.8 108.8zM192 61.866667C96 61.866667 19.2 140.8 19.2 234.666667s76.8 172.8 172.8 172.8 172.8-76.8 172.8-172.8-76.8-172.8-172.8-172.8z m0 283.733333c-59.733333 0-108.8-49.066667-108.8-108.8S132.266667 128 192 128s108.8 49.066667 108.8 108.8-49.066667 108.8-108.8 108.8z"  horiz-adv-x="1024" />

    
    <glyph glyph-name="dingwei" unicode="&#58968;" d="M268.8 484.266667c-12.8 0-23.466667 6.4-29.866667 19.2-12.8 29.866667-19.2 64-19.2 96 0 145.066667 128 262.4 283.733334 262.4s283.733333-117.333333 283.733333-262.4c0-27.733333-4.266667-55.466667-14.933333-83.2-6.4-17.066667-23.466667-25.6-40.533334-19.2-17.066667 6.4-25.6 23.466667-19.2 40.533333 6.4 19.2 10.666667 40.533333 10.666667 61.866667 0 108.8-98.133333 198.4-219.733333 198.4-121.6 0-219.733333-89.6-219.733334-198.4 0-25.6 4.266667-49.066667 14.933334-70.4 6.4-17.066667 0-34.133333-17.066667-42.666667-4.266667 0-8.533333-2.133333-12.8-2.133333zM503.466667-57.6c-145.066667 0-253.866667 59.733333-253.866667 140.8 0 66.133333 72.533333 119.466667 185.6 134.4 17.066667 2.133333 34.133333-10.666667 36.266667-27.733333 2.133333-17.066667-10.666667-34.133333-27.733334-36.266667-83.2-12.8-132.266667-46.933333-132.266666-72.533333 0-32 72.533333-76.8 189.866666-76.8s189.866667 44.8 189.866667 76.8c0 23.466667-38.4 53.333333-113.066667 68.266666-17.066667 4.266667-27.733333 21.333333-25.6 38.4 4.266667 17.066667 21.333333 27.733333 38.4 25.6 100.266667-19.2 164.266667-70.4 164.266667-132.266666 2.133333-78.933333-106.666667-138.666667-251.733333-138.666667zM503.466667 83.2c-23.466667 0-46.933333 10.666667-59.733334 27.733333l-2.133333 4.266667-200.533333 386.133333c-8.533333 14.933333-2.133333 34.133333 12.8 42.666667 14.933333 8.533333 34.133333 2.133333 42.666666-12.8L497.066667 149.333333h14.933333l202.666667 394.666667c8.533333 14.933333 27.733333 21.333333 42.666666 12.8s21.333333-27.733333 12.8-42.666667l-209.066666-401.066666c-10.666667-19.2-32-29.866667-57.6-29.866667zM505.6 465.066667c-66.133333 0-119.466667 53.333333-119.466667 119.466666S439.466667 704 505.6 704c66.133333 0 119.466667-53.333333 119.466667-119.466667s-53.333333-119.466667-119.466667-119.466666z m0 172.8c-29.866667 0-55.466667-25.6-55.466667-55.466667s25.6-55.466667 55.466667-55.466667c29.866667 0 55.466667 25.6 55.466667 55.466667s-23.466667 55.466667-55.466667 55.466667z"  horiz-adv-x="1024" />

    
    <glyph glyph-name="gouwuche" unicode="&#58969;" d="M409.6 2.133333c-53.333333 0-98.133333 44.8-98.133333 98.133334s44.8 98.133333 98.133333 98.133333 98.133333-44.8 98.133333-98.133333-42.666667-98.133333-98.133333-98.133334z m0 132.266667c-19.2 0-34.133333-14.933333-34.133333-34.133333s14.933333-34.133333 34.133333-34.133334c19.2 0 34.133333 14.933333 34.133333 34.133334s-14.933333 34.133333-34.133333 34.133333zM819.2 2.133333c-53.333333 0-98.133333 44.8-98.133333 98.133334s44.8 98.133333 98.133333 98.133333 98.133333-44.8 98.133333-98.133333-42.666667-98.133333-98.133333-98.133334z m0 132.266667c-19.2 0-34.133333-14.933333-34.133333-34.133333s14.933333-34.133333 34.133333-34.133334 34.133333 14.933333 34.133333 34.133334-14.933333 34.133333-34.133333 34.133333zM296.533333 422.4c-17.066667 0-32 14.933333-32 32v53.333333c0 74.666667-59.733333 134.4-134.4 134.4H46.933333c-17.066667 0-32 14.933333-32 32s14.933333 32 32 32h83.2c108.8 0 198.4-89.6 198.4-198.4v-53.333333c0-17.066667-14.933333-32-32-32zM846.933333 270.933333H379.733333c-64 0-115.2 51.2-115.2 115.2v183.466667c0 34.133333 14.933333 66.133333 40.533334 87.466667 25.6 21.333333 59.733333 32 93.866666 25.6l467.2-72.533334c57.6-8.533333 98.133333-57.6 98.133334-115.2v-108.8c-2.133333-61.866667-53.333333-115.2-117.333334-115.2zM379.733333 620.8c-12.8 0-23.466667-4.266667-34.133333-12.8-10.666667-10.666667-17.066667-23.466667-17.066667-38.4v-183.466667c0-27.733333 23.466667-51.2 51.2-51.2h467.2c27.733333 0 51.2 23.466667 51.2 51.2v108.8c0 25.6-19.2 46.933333-42.666666 51.2L388.266667 618.666667c-4.266667 2.133333-6.4 2.133333-8.533334 2.133333zM945.066667 153.6H358.4c-53.333333 0-96 42.666667-96 96v157.866667c0 17.066667 14.933333 32 32 32s32-14.933333 32-32v-157.866667c0-17.066667 14.933333-32 32-32h586.666667c17.066667 0 32-14.933333 32-32s-12.8-32-32-32z"  horiz-adv-x="1024" />

    
    <glyph glyph-name="biaoqian" unicode="&#58970;" d="M354.133333 21.333333c-10.666667 0-21.333333 4.266667-27.733333 14.933334L132.266667 332.8c-10.666667 14.933333-6.4 34.133333 8.533333 44.8s34.133333 6.4 44.8-8.533333l194.133333-294.4c10.666667-14.933333 6.4-34.133333-8.533333-44.8-4.266667-6.4-10.666667-8.533333-17.066667-8.533334zM256-49.066667c-8.533333 0-17.066667 0-25.6 2.133334-34.133333 6.4-61.866667 25.6-81.066667 53.333333l-113.066666 170.666667c-38.4 57.6-21.333333 136.533333 36.266666 174.933333l450.133334 296.533333c27.733333 17.066667 57.6 27.733333 89.6 29.866667h215.466666c32 2.133333 64-12.8 83.2-40.533333 19.2-27.733333 19.2-61.866667 4.266667-91.733334L817.066667 320c-14.933333-25.6-34.133333-49.066667-59.733334-64L326.4-29.866667c-21.333333-12.8-44.8-19.2-70.4-19.2zM108.8 298.666667c-29.866667-19.2-36.266667-57.6-17.066667-87.466667l113.066667-170.666667c8.533333-14.933333 23.466667-23.466667 40.533333-27.733333 17.066667-4.266667 34.133333 0 46.933334 8.533333L725.333333 305.066667c14.933333 10.666667 27.733333 23.466667 38.4 40.533333L859.733333 576c6.4 12.8 2.133333 23.466667-2.133333 27.733333s-10.666667 12.8-25.6 12.8H614.4c-19.2 0-38.4-8.533333-55.466667-19.2L108.8 298.666667zM622.933333 371.2c-4.266667 0-10.666667 0-14.933333 2.133333-19.2 4.266667-36.266667 14.933333-46.933333 32-10.666667 17.066667-14.933333 36.266667-10.666667 55.466667 4.266667 19.2 14.933333 36.266667 32 46.933333 17.066667 10.666667 36.266667 14.933333 55.466667 10.666667 19.2-4.266667 36.266667-14.933333 46.933333-32 10.666667-17.066667 14.933333-36.266667 10.666667-55.466667-4.266667-19.2-14.933333-36.266667-32-46.933333-12.8-8.533333-27.733333-12.8-40.533334-12.8z m0 102.4c-6.4 0-10.666667-2.133333-17.066666-4.266667-6.4-4.266667-10.666667-10.666667-12.8-19.2-2.133333-8.533333 0-14.933333 4.266666-23.466666s10.666667-10.666667 19.2-12.8c8.533333-2.133333 14.933333 0 23.466667 4.266666 6.4 4.266667 10.666667 10.666667 12.8 19.2s0 14.933333-4.266667 23.466667-10.666667 10.666667-19.2 12.8h-6.4z"  horiz-adv-x="1024" />

    
    <glyph glyph-name="gouwudai" unicode="&#58971;" d="M789.333333-100.266667H251.733333c-81.066667 0-147.2 66.133333-147.2 147.2V486.4c0 81.066667 66.133333 147.2 147.2 147.2H789.333333c81.066667 0 147.2-66.133333 147.2-147.2v-439.466667c0-81.066667-66.133333-147.2-147.2-147.2zM251.733333 569.6c-44.8 0-83.2-36.266667-83.2-83.2v-439.466667c0-44.8 36.266667-83.2 83.2-83.2H789.333333c44.8 0 83.2 36.266667 83.2 83.2V486.4c0 44.8-36.266667 83.2-83.2 83.2H251.733333zM693.333333 458.666667c-17.066667 0-32 14.933333-32 32V697.6c0 64-61.866667 115.2-138.666666 115.2S384 761.6 384 697.6V490.666667c0-17.066667-14.933333-32-32-32S320 473.6 320 490.666667V697.6C320 795.733333 411.733333 876.8 522.666667 876.8S725.333333 797.866667 725.333333 697.6V490.666667c0-17.066667-14.933333-32-32-32zM640 68.266667H403.2c-17.066667 0-32 14.933333-32 32s14.933333 32 32 32H640c17.066667 0 32-14.933333 32-32s-14.933333-32-32-32z"  horiz-adv-x="1024" />

    
    <glyph glyph-name="jiaoxue" unicode="&#58972;" d="M334.933333 678.4c-12.8 0-23.466667 6.4-27.733333 17.066667L249.6 810.666667c-8.533333 14.933333-2.133333 34.133333 14.933333 42.666666 14.933333 8.533333 34.133333 2.133333 42.666667-14.933333l57.6-115.2c8.533333-14.933333 2.133333-34.133333-14.933333-42.666667-4.266667-2.133333-8.533333-2.133333-14.933334-2.133333zM708.266667 686.933333c-4.266667 0-10.666667 2.133333-14.933334 4.266667-14.933333 8.533333-21.333333 27.733333-14.933333 42.666667l57.6 115.2c8.533333 14.933333 27.733333 21.333333 42.666667 14.933333 14.933333-8.533333 21.333333-27.733333 14.933333-42.666667L736 704c-4.266667-10.666667-17.066667-17.066667-27.733333-17.066667zM955.733333 678.4H83.2c-17.066667 0-32 14.933333-32 32s14.933333 32 32 32h872.533333c17.066667 0 32-14.933333 32-32s-12.8-32-32-32zM763.733333 149.333333H288c-61.866667 0-113.066667 51.2-113.066667 113.066667V695.466667c0 17.066667 14.933333 32 32 32s32-14.933333 32-32v-433.066667c0-27.733333 21.333333-49.066667 49.066667-49.066667h477.866667c27.733333 0 49.066667 21.333333 49.066666 49.066667v448c0 17.066667 14.933333 32 32 32s32-14.933333 32-32v-448c0-61.866667-51.2-113.066667-115.2-113.066667zM836.266667 548.266667H221.866667c-17.066667 0-32 14.933333-32 32s14.933333 32 32 32h614.4c17.066667 0 32-14.933333 32-32s-14.933333-32-32-32zM497.066667 313.6c-17.066667 0-36.266667 8.533333-46.933334 21.333333l-34.133333 38.4c-10.666667 12.8-10.666667 34.133333 2.133333 44.8s34.133333 10.666667 44.8-2.133333l34.133334-38.4 153.6 87.466667c14.933333 8.533333 34.133333 4.266667 42.666666-12.8 8.533333-14.933333 4.266667-34.133333-12.8-42.666667L526.933333 320c-10.666667-4.266667-21.333333-6.4-29.866666-6.4zM307.2-81.066667c-4.266667 0-8.533333 0-12.8 2.133334-17.066667 6.4-23.466667 25.6-17.066667 42.666666l89.6 224c6.4 17.066667 25.6 23.466667 42.666667 17.066667 17.066667-6.4 23.466667-25.6 17.066667-42.666667l-89.6-224c-4.266667-10.666667-17.066667-19.2-29.866667-19.2zM725.333333-98.133333c-12.8 0-25.6 8.533333-29.866666 19.2l-89.6 224c-6.4 17.066667 2.133333 34.133333 17.066666 42.666666 17.066667 6.4 34.133333-2.133333 42.666667-17.066666l89.6-224c6.4-17.066667-2.133333-34.133333-17.066667-42.666667-4.266667-2.133333-8.533333-2.133333-12.8-2.133333z"  horiz-adv-x="1024" />

    
    <glyph glyph-name="dingdan" unicode="&#58973;" d="M733.866667-102.4H364.8c-81.066667 0-147.2 66.133333-147.2 147.2 0 17.066667 14.933333 32 32 32s32-14.933333 32-32c0-44.8 36.266667-83.2 83.2-83.2h371.2c44.8 0 83.2 36.266667 83.2 83.2V582.4c0 38.4-12.8 89.6-125.866667 89.6-17.066667 0-32 14.933333-32 32s14.933333 32 32 32c170.666667 0 189.866667-106.666667 189.866667-153.6V42.666667c-2.133333-81.066667-68.266667-145.066667-149.333333-145.066667zM576 17.066667H206.933333c-81.066667 0-147.2 66.133333-147.2 147.2V704c0 81.066667 66.133333 147.2 147.2 147.2H576c81.066667 0 147.2-66.133333 147.2-147.2v-539.733333c0-81.066667-66.133333-147.2-147.2-147.2zM123.733333 704v-539.733333c0-44.8 36.266667-83.2 83.2-83.2H576c44.8 0 83.2 36.266667 83.2 83.2V704c0 44.8-36.266667 83.2-83.2 83.2H206.933333C177.066667 787.2 123.733333 748.8 123.733333 704zM381.866667 616.533333h-110.933334c-17.066667 0-32 14.933333-32 32s14.933333 32 32 32h110.933334c17.066667 0 32-14.933333 32-32s-14.933333-32-32-32zM469.333333 430.933333h-192c-17.066667 0-32 14.933333-32 32s14.933333 32 32 32h192c17.066667 0 32-14.933333 32-32s-12.8-32-32-32z"  horiz-adv-x="1024" />

    
    <glyph glyph-name="kafei" unicode="&#58974;" d="M853.333333 59.733333c-25.6 0-51.2 6.4-72.533333 21.333334-14.933333 8.533333-19.2 27.733333-10.666667 42.666666s27.733333 19.2 42.666667 10.666667c12.8-8.533333 25.6-10.666667 40.533333-10.666667 46.933333 0 87.466667 44.8 87.466667 98.133334 0 55.466667-38.4 98.133333-87.466667 98.133333-17.066667 0-29.866667 12.8-29.866666 29.866667 0 17.066667 12.8 29.866667 29.866666 29.866666 81.066667 0 149.333333-72.533333 149.333334-160s-66.133333-160-149.333334-160zM868.266667 490.666667c-27.733333 98.133333-369.066667 102.4-409.6 102.4-40.533333 0-401.066667-4.266667-409.6-110.933334-8.533333-36.266667-14.933333-74.666667-14.933334-113.066666 0-206.933333 49.066667-443.733333 424.533334-443.733334 285.866667 0 424.533333 145.066667 424.533333 443.733334 2.133333 40.533333-4.266667 83.2-14.933333 121.6z m-409.6 40.533333c200.533333 0 317.866667-32 343.466666-53.333333-27.733333-21.333333-145.066667-53.333333-343.466666-53.333334S142.933333 458.666667 115.2 477.866667c27.733333 21.333333 145.066667 53.333333 343.466667 53.333333z m2.133333-544c-300.8 0-362.666667 151.466667-362.666667 381.866667 0 17.066667 2.133333 34.133333 4.266667 49.066666 102.4-51.2 326.4-53.333333 358.4-53.333333s258.133333 2.133333 360.533333 53.333333c2.133333-17.066667 4.266667-34.133333 4.266667-51.2-2.133333-262.4-113.066667-379.733333-364.8-379.733333zM347.733333 456.533333c-8.533333 0-17.066667 4.266667-23.466666 10.666667-57.6 66.133333-34.133333 119.466667-14.933334 162.133333 2.133333 6.4 6.4 12.8 8.533334 19.2 8.533333 21.333333-10.666667 83.2-27.733334 119.466667-8.533333 14.933333-2.133333 34.133333 14.933334 40.533333 14.933333 8.533333 34.133333 2.133333 40.533333-14.933333 8.533333-19.2 53.333333-113.066667 29.866667-168.533333-2.133333-6.4-6.4-14.933333-8.533334-21.333334-19.2-40.533333-25.6-59.733333 4.266667-96 10.666667-12.8 10.666667-32-2.133333-42.666666-6.4-6.4-14.933333-8.533333-21.333334-8.533334zM503.466667 456.533333c-8.533333 0-17.066667 4.266667-23.466667 10.666667-57.6 66.133333-34.133333 119.466667-14.933333 162.133333 2.133333 6.4 6.4 12.8 8.533333 19.2 8.533333 21.333333-10.666667 83.2-27.733333 119.466667-8.533333 14.933333-2.133333 34.133333 14.933333 40.533333 14.933333 8.533333 34.133333 2.133333 40.533333-14.933333 8.533333-19.2 53.333333-113.066667 29.866667-168.533333-2.133333-6.4-6.4-14.933333-8.533333-21.333334-19.2-40.533333-25.6-59.733333 4.266666-96 10.666667-12.8 10.666667-32-2.133333-42.666666-8.533333-6.4-14.933333-8.533333-21.333333-8.533334zM659.2 456.533333c-8.533333 0-17.066667 4.266667-23.466667 10.666667-57.6 66.133333-34.133333 119.466667-14.933333 162.133333 2.133333 6.4 6.4 12.8 8.533333 19.2 8.533333 21.333333-10.666667 83.2-27.733333 119.466667-8.533333 14.933333-2.133333 34.133333 14.933333 40.533333 14.933333 8.533333 34.133333 2.133333 40.533334-14.933333 8.533333-19.2 53.333333-113.066667 29.866666-168.533333-2.133333-6.4-6.4-14.933333-8.533333-21.333334-19.2-40.533333-25.6-59.733333 4.266667-96 10.666667-12.8 10.666667-32-2.133334-42.666666-6.4-6.4-12.8-8.533333-21.333333-8.533334z"  horiz-adv-x="1024" />

    
    <glyph glyph-name="jiangbei" unicode="&#58975;" d="M650.666667 456.533333c-14.933333 8.533333-34.133333 2.133333-42.666667-12.8-42.666667-78.933333-66.133333-179.2-66.133333-285.866666 0-78.933333 12.8-157.866667 38.4-226.133334h-136.533334c25.6 68.266667 38.4 145.066667 38.4 226.133334 0 104.533333-23.466667 204.8-64 283.733333-8.533333 14.933333-27.733333 21.333333-42.666666 12.8s-21.333333-27.733333-12.8-42.666667c36.266667-70.4 57.6-160 57.6-253.866666 0-89.6-19.2-174.933333-51.2-243.2 0 0 0-2.133333-2.133334-4.266667V-108.8s0-2.133333 2.133334-2.133333c0 0 0-2.133333 2.133333-2.133334l2.133333-2.133333 2.133334-2.133333 2.133333-2.133334 2.133333-2.133333 2.133334-2.133333h2.133333c2.133333 0 2.133333-2.133333 4.266667-2.133334H637.866667c2.133333 0 4.266667 0 4.266666 2.133334 0 0 2.133333 0 2.133334 2.133333l2.133333 2.133333 2.133333 2.133334 2.133334 2.133333 2.133333 2.133333 2.133333 2.133334s0 2.133333 2.133334 2.133333c0 0 0 2.133333 2.133333 2.133333v2.133334 2.133333 4.266667 2.133333 4.266667 2.133333 2.133333s0 2.133333-2.133333 2.133334c-34.133333 68.266667-51.2 153.6-51.2 243.2 0 93.866667 21.333333 185.6 57.6 253.866666 8.533333 17.066667 2.133333 36.266667-12.8 44.8zM512 362.666667c-140.8 0-256 115.2-256 256S371.2 874.666667 512 874.666667s256-115.2 256-256-115.2-256-256-256z m0 448c-106.666667 0-192-85.333333-192-192s85.333333-192 192-192 192 85.333333 192 192c0 104.533333-85.333333 192-192 192z"  horiz-adv-x="1024" />

    
    <glyph glyph-name="jiangpai" unicode="&#58976;" d="M512 57.6c-23.466667 0-49.066667 8.533333-66.133333 27.733333-36.266667 36.266667-36.266667 96 0 132.266667 36.266667 36.266667 96 36.266667 132.266666 0 36.266667-36.266667 36.266667-96 0-132.266667-17.066667-19.2-42.666667-27.733333-66.133333-27.733333z m0 136.533333c-10.666667 0-21.333333-4.266667-29.866667-12.8-8.533333-8.533333-12.8-19.2-12.8-29.866666 0-10.666667 4.266667-21.333333 12.8-29.866667 17.066667-17.066667 44.8-17.066667 59.733334 0 8.533333 8.533333 12.8 19.2 12.8 29.866667 0 10.666667-4.266667 21.333333-12.8 29.866666-8.533333 8.533333-19.2 12.8-29.866667 12.8zM667.733333 332.8L544 836.266667v2.133333c0 2.133333 0 2.133333-2.133333 4.266667 0 0 0 2.133333-2.133334 2.133333 0 0 0 2.133333-2.133333 2.133333l-2.133333 2.133334-2.133334 2.133333s0 2.133333-2.133333 2.133333l-2.133333 2.133334-2.133334 2.133333s-2.133333 0-2.133333 2.133333c-2.133333 0-2.133333 0-4.266667 2.133334h-2.133333H512h-2.133333H503.466667h-2.133334c-2.133333 0-2.133333 0-4.266666-2.133334h-2.133334c-2.133333 0-2.133333-2.133333-2.133333-2.133333s-2.133333 0-2.133333-2.133333l-2.133334-2.133334-2.133333-2.133333-2.133333-2.133333s0-2.133333-2.133334-2.133334c0 0 0-2.133333-2.133333-2.133333 0 0 0-2.133333-2.133333-4.266667v-2.133333l-125.866667-503.466667c-4.266667-17.066667 6.4-34.133333 23.466667-38.4h8.533333c14.933333 0 27.733333 10.666667 32 23.466667L512 695.466667l93.866667-379.733334c4.266667-14.933333 17.066667-23.466667 32-23.466666h8.533333c17.066667 6.4 27.733333 23.466667 21.333333 40.533333zM512-91.733333c-134.4 0-245.333333 108.8-245.333333 245.333333 0 134.4 108.8 245.333333 245.333333 245.333333 134.4 0 245.333333-108.8 245.333333-245.333333S646.4-91.733333 512-91.733333z m0 424.533333c-100.266667 0-181.333333-81.066667-181.333333-181.333333s81.066667-181.333333 181.333333-181.333334 181.333333 81.066667 181.333333 181.333334-81.066667 181.333333-181.333333 181.333333z"  horiz-adv-x="1024" />

    
    <glyph glyph-name="kefu" unicode="&#58977;" d="M520.533333 181.33333367c-55.466667 0-106.666667 17.066667-149.333333 49.066666-14.933333 10.666667-17.066667 29.866667-6.4 44.8 10.666667 14.933333 29.866667 17.066667 44.8 6.4 32-23.466667 70.4-36.266667 110.933333-36.266666 40.533333 0 78.933333 12.8 110.933334 36.266666 14.933333 10.666667 34.133333 8.533333 44.8-6.4s8.533333-34.133333-6.4-44.8c-42.666667-32-93.866667-49.066667-149.333334-49.066666zM584.533333 21.333333670000002c-23.466667 0-42.666667 19.2-42.666666 42.666666s19.2 42.666667 42.666666 42.666667c49.066667 0 96 10.666667 140.8 29.866667 21.333333 10.666667 46.933333 0 55.466667-21.333334 10.666667-21.333333 0-46.933333-21.333333-55.466666-53.333333-25.6-113.066667-38.4-174.933334-38.4zM157.866667 341.33333367c-70.4 8.533333-121.6 70.4-113.066667 136.533333s74.666667 115.2 145.066667 106.666667M836.266667 571.73333367c70.4 12.8 138.666667-32 151.466666-98.133334 12.8-66.133333-34.133333-130.133333-104.533333-142.933333M748.8 72.53333367000005c-10.666667 0-19.2 4.266667-25.6 12.8-10.666667 14.933333-8.533333 34.133333 6.4 44.8C808.533333 189.86666666999997 853.333333 277.33333367 853.333333 371.19999967c0 170.666667-147.2 309.333333-330.666666 309.333334S192 541.86666667 192 371.19999967c0-17.066667-14.933333-32-32-32S128 354.13333366999996 128 371.19999967C128 575.9999996700001 302.933333 744.53333367 520.533333 744.53333367s394.666667-166.4 394.666667-373.333334c0-113.066667-53.333333-219.733333-149.333333-292.266666-4.266667-4.266667-10.666667-6.4-17.066667-6.4z"  horiz-adv-x="1024" />

    
    <glyph glyph-name="liwu" unicode="&#58978;" d="M424.533333 503.46666667c-61.866667 0-147.2 49.066667-172.8 96-17.066667 29.866667-19.2 64-8.533333 96 12.8 34.133333 40.533333 64 78.933333 78.933333 72.533333 29.866667 155.733333 2.133333 189.866667-61.866666 25.6-49.066667 6.4-113.066667 0-132.266667-8.533333-21.333333-25.6-59.733333-53.333333-72.533333-10.666667-4.266667-21.333333-4.266667-34.133334-4.266667z m-42.666666 217.6c-12.8 0-23.466667-2.133333-36.266667-6.4-19.2-8.533333-36.266667-23.466667-42.666667-40.533333-4.266667-14.933333-4.266667-29.866667 4.266667-44.8 21.333333-38.4 102.4-70.4 125.866667-61.866667 12.8 10.666667 40.533333 81.066667 23.466666 115.2-12.8 23.466667-42.666667 38.4-74.666666 38.4zM582.4 501.33333367c-12.8 0-23.466667 2.133333-32 6.4-25.6 10.666667-44.8 38.4-55.466667 74.666666-14.933333 49.066667-10.666667 104.533333 10.666667 138.666667 38.4 64 125.866667 87.466667 198.4 53.333333 36.266667-17.066667 64-46.933333 74.666667-83.2 10.666667-34.133333 6.4-68.266667-12.8-100.266666-27.733333-51.2-125.866667-89.6-183.466667-89.6z m55.466667 221.866666c-32 0-61.866667-14.933333-76.8-38.4-12.8-19.2-12.8-55.466667-4.266667-87.466666 6.4-19.2 14.933333-32 21.333333-34.133334 21.333333-6.4 115.2 25.6 136.533334 59.733334 8.533333 14.933333 10.666667 32 6.4 46.933333-6.4 19.2-21.333333 34.133333-40.533334 44.8-14.933333 6.4-29.866667 8.533333-42.666666 8.533333z m102.4-117.333333zM951.466667 550.3999996699999H72.533333c-17.066667 0-32-14.933333-32-32s14.933333-32 32-32h70.4C132.266667 467.19999967 128 447.99999967 128 426.66666667v-343.466667c0-78.933333 64-145.066667 145.066667-145.066666h480c78.933333 0 145.066667 64 145.066666 145.066666V426.66666667c0 21.333333-6.4 42.666667-14.933333 59.733333h70.4c17.066667 0 32 14.933333 32 32s-17.066667 32-34.133333 32z m-407.466667-64v-484.266666H469.333333V486.39999967h74.666667zM192 83.19999967000001V426.66666667c0 34.133333 27.733333 59.733333 59.733333 59.733333H405.333333v-484.266666h-132.266666c-44.8 0-81.066667 36.266667-81.066667 81.066666zM832 426.66666667v-343.466667c0-44.8-36.266667-81.066667-81.066667-81.066666h-142.933333V486.39999967h164.266667c34.133333 0 59.733333-27.733333 59.733333-59.733333z"  horiz-adv-x="1024" />

    
    <glyph glyph-name="licai" unicode="&#58979;" d="M512 185.6c-29.866667 0-57.6 10.666667-78.933333 32l-85.333334 85.333333c-21.333333 21.333333-32 49.066667-32 78.933334 0 29.866667 10.666667 57.6 32 78.933333l85.333334 85.333333c21.333333 21.333333 49.066667 32 78.933333 32 29.866667 0 57.6-10.666667 78.933333-32l85.333334-85.333333c21.333333-21.333333 32-49.066667 32-78.933333 0-29.866667-10.666667-57.6-32-78.933334l-85.333334-85.333333c-21.333333-19.2-49.066667-32-78.933333-32z m0 332.8c-12.8 0-25.6-4.266667-34.133333-14.933333l-85.333334-85.333334c-8.533333-8.533333-14.933333-21.333333-14.933333-34.133333 0-12.8 4.266667-25.6 14.933333-34.133333l85.333334-85.333334c17.066667-17.066667 49.066667-17.066667 68.266666 0l85.333334 85.333334c8.533333 8.533333 14.933333 21.333333 14.933333 34.133333 0 12.8-4.266667 25.6-14.933333 34.133333l-85.333334 85.333334c-8.533333 8.533333-21.333333 14.933333-34.133333 14.933333zM512-83.2C253.866667-83.2 44.8 125.866667 44.8 384S253.866667 851.2 512 851.2 979.2 642.133333 979.2 384 770.133333-83.2 512-83.2z m0 870.4C290.133333 787.2 108.8 605.866667 108.8 384c0-221.866667 181.333333-403.2 403.2-403.2 221.866667 0 403.2 181.333333 403.2 403.2 0 221.866667-181.333333 403.2-403.2 403.2z"  horiz-adv-x="1024" />

    
    <glyph glyph-name="mima" unicode="&#58980;" d="M512-85.333333c-211.2 0-384 172.8-384 384v34.133333c0 89.6 72.533333 164.266667 164.266667 164.266667h462.933333c78.933333 0 142.933333-64 142.933333-142.933334V298.666667C896 87.466667 723.2-85.333333 512-85.333333zM290.133333 433.066667c-55.466667 0-100.266667-44.8-100.266666-100.266667V298.666667c0-177.066667 142.933333-320 320-320s320 142.933333 320 320v53.333333c0 44.8-36.266667 78.933333-78.933334 78.933333H290.133333zM697.6 473.6c-17.066667 0-32 14.933333-32 32v130.133333C665.6 721.066667 597.333333 789.333333 512 789.333333s-153.6-68.266667-153.6-153.6v-130.133333c0-17.066667-14.933333-32-32-32s-32 14.933333-32 32v130.133333C294.4 755.2 392.533333 853.333333 512 853.333333s217.6-98.133333 217.6-217.6v-130.133333c0-17.066667-14.933333-32-32-32zM512 136.533333c-17.066667 0-32 14.933333-32 32v138.666667c0 17.066667 14.933333 32 32 32s32-14.933333 32-32v-138.666667c0-17.066667-14.933333-32-32-32z"  horiz-adv-x="1024" />

    
    <glyph glyph-name="huangguan" unicode="&#58981;" d="M369.066667 256c-4.266667 0-10.666667 2.133333-14.933334 4.266667-14.933333 8.533333-21.333333 27.733333-12.8 42.666666l130.133334 234.666667c14.933333 19.2 36.266667 29.866667 59.733333 29.866667 23.466667 0 46.933333-10.666667 61.866667-27.733334l2.133333-4.266666 128-215.466667c8.533333-14.933333 4.266667-34.133333-10.666667-44.8-14.933333-8.533333-34.133333-4.266667-44.8 10.666667l-125.866666 213.333333c-4.266667 2.133333-8.533333 4.266667-10.666667 4.266667-2.133333 0-6.4 0-10.666667-4.266667l-125.866666-228.266667c-4.266667-8.533333-14.933333-14.933333-25.6-14.933333zM716.8 40.533333H322.133333c-53.333333 0-102.4 34.133333-119.466666 83.2L93.866667 424.533333c-6.4 19.2 0 40.533333 14.933333 51.2 17.066667 12.8 38.4 12.8 53.333333 0L437.333333 277.333333c10.666667-8.533333 23.466667-12.8 36.266667-12.8h98.133333c14.933333 0 27.733333 4.266667 38.4 12.8l268.8 209.066667c17.066667 12.8 38.4 12.8 55.466667 0s23.466667-34.133333 14.933333-53.333333l-115.2-311.466667c-17.066667-46.933333-64-81.066667-117.333333-81.066667zM174.933333 388.266667l87.466667-243.2c8.533333-25.6 32-42.666667 59.733333-42.666667h392.533334c25.6 0 51.2 17.066667 59.733333 40.533333l91.733333 251.733334-217.6-168.533334c-21.333333-17.066667-49.066667-27.733333-78.933333-27.733333h-98.133333c-27.733333 0-53.333333 8.533333-74.666667 23.466667L174.933333 388.266667zM102.4 554.666667m-42.666667 0a42.666667 42.666667 0 1 1 85.333334 0 42.666667 42.666667 0 1 1-85.333334 0ZM531.2 646.4m-42.666667 0a42.666667 42.666667 0 1 1 85.333334 0 42.666667 42.666667 0 1 1-85.333334 0ZM942.933333 573.866667m-42.666666 0a42.666667 42.666667 0 1 1 85.333333 0 42.666667 42.666667 0 1 1-85.333333 0Z"  horiz-adv-x="1024" />

    
    <glyph glyph-name="huatong1" unicode="&#58982;" d="M512 247.466667c-110.933333 0-200.533333 89.6-200.533333 200.533333v194.133333c0 110.933333 89.6 200.533333 200.533333 200.533334s200.533333-89.6 200.533333-200.533334V448c0-110.933333-89.6-200.533333-200.533333-200.533333z m0 531.2c-76.8 0-136.533333-61.866667-136.533333-136.533334V448c0-76.8 61.866667-136.533333 136.533333-136.533333s136.533333 61.866667 136.533333 136.533333v194.133333c0 76.8-59.733333 136.533333-136.533333 136.533334zM512-66.133333c-17.066667 0-32 14.933333-32 32v179.2c0 17.066667 14.933333 32 32 32s32-14.933333 32-32v-179.2c0-17.066667-14.933333-32-32-32zM512 113.066667c-185.6 0-334.933333 151.466667-334.933333 334.933333v89.6c0 17.066667 14.933333 32 32 32s32-14.933333 32-32V448c0-149.333333 121.6-270.933333 270.933333-270.933333 149.333333 0 270.933333 121.6 270.933333 270.933333v89.6c0 17.066667 14.933333 32 32 32s32-14.933333 32-32V448c0-183.466667-149.333333-334.933333-334.933333-334.933333z"  horiz-adv-x="1024" />

    
    </font>
</defs>
</svg>
